
CASCADE Topology V1, (c) Matra-Datavision
Locations 32
1
1.000000000000000 0.000000000000000 0.000000000000000 0.000000000000000 
0.000000000000000 1.000000000000000 0.000000000000000 0.000000000000000 
0.000000000000000 0.000000000000000 1.000000000000000 0.000000000000000 
1
1.000000000000000 0.000000000000000 0.000000000000000 0.000000000000000 
0.000000000000000 1.000000000000000 0.000000000000000 0.000000000000000 
0.000000000000000 0.000000000000000 1.000000000000000 0.000000000000000 
1
1.000000000000000 0.000000000000000 0.000000000000000 0.000000000000000 
0.000000000000000 1.000000000000000 0.000000000000000 0.000000000000000 
0.000000000000000 0.000000000000000 1.000000000000000 0.000000000000000 
2  2 1 3 -1 0
1
1.000000000000000 0.000000000000000 0.000000000000000 0.000000000000000 
0.000000000000000 1.000000000000000 0.000000000000000 0.000000000000000 
0.000000000000000 0.000000000000000 1.000000000000000 0.000000000000000 
1
1.000000000000000 0.000000000000000 0.000000000000000 0.000000000000000 
0.000000000000000 1.000000000000000 0.000000000000000 0.000000000000000 
0.000000000000000 0.000000000000000 1.000000000000000 0.000000000000000 
1
1.000000000000000 0.000000000000000 0.000000000000000 0.000000000000000 
0.000000000000000 1.000000000000000 0.000000000000000 0.000000000000000 
0.000000000000000 0.000000000000000 1.000000000000000 0.000000000000000 
2  5 1 6 1 7 -1 2 1 3 -1 0
2  7 1 6 -1 5 -1 0
1
1.000000000000000 0.000000000000000 0.000000000000000 0.000000000000000 
0.000000000000000 1.000000000000000 0.000000000000000 0.000000000000000 
0.000000000000000 0.000000000000000 1.000000000000000 28.000000000000000 
2  10 -1 7 1 6 -1 5 -1 0
2  6 -1 5 -1 0
2  2 -1 10 -1 7 1 6 -1 5 -1 0
2  5 1 6 1 7 -1 0
1
1.000000000000000 0.000000000000000 0.000000000000000 0.000000000000000 
0.000000000000000 1.000000000000000 0.000000000000000 0.000000000000000 
0.000000000000000 0.000000000000000 1.000000000000000 0.000000000000000 
1
1.000000000000000 0.000000000000000 0.000000000000000 0.000000000000000 
0.000000000000000 1.000000000000000 0.000000000000000 0.000000000000000 
0.000000000000000 0.000000000000000 1.000000000000000 28.000000000000000 
1
1.000000000000000 0.000000000000000 0.000000000000000 -0.000000000000000 
0.000000000000000 1.000000000000000 0.000000000000000 -0.000000000000000 
0.000000000000000 0.000000000000000 1.000000000000000 -5.000000000000000 
2  15 1 16 1 3 -1 17 1 3 1 2 -1 0
2  15 1 16 1 3 -1 17 1 0
2  3 1 16 -1 15 -1 0
2  17 -1 3 1 16 -1 15 -1 0
2  16 -1 15 -1 0
2  2 1 3 -1 17 -1 3 1 16 -1 15 -1 0
2  7 -1 2 1 3 -1 0
2  5 1 6 1 0
2  15 1 16 1 3 -1 0
2  5 1 6 1 7 -1 10 1 2 1 3 -1 0
2  15 1 16 1 2 -1 10 -1 7 1 6 -1 5 -1 0
2  3 -1 17 1 0
2  15 1 16 1 0
2  7 -1 10 1 2 1 16 -1 15 -1 0
2  7 -1 10 1 2 1 3 -1 0
Curve2ds 140
1 0.00000000000000000 0.00000000000000000 1.00000000000000000 0.00000000000000000 
1 0.00000000000000000 -28.00000000000000000 1.00000000000000000 0.00000000000000000 
1 -278.50000000000000000 -385.00000000000000000 1.00000000000000000 0.00000000000000000 
1 260.52749483043629652 -388.57636859697117870 -1.00000000000000000 0.00000000000000000 
1 258.38168552767632491 -385.60934381337420973 -1.00000000000000000 -0.00000000000000000 
1 557.00000000000000000 0.00000000000000000 0.00000000000000000 -1.00000000000000000 
1 0.00000000000000000 0.00000000000000000 0.00000000000000000 -1.00000000000000000 
1 0.00000000000000000 0.00000000000000000 1.00000000000000000 0.00000000000000000 
1 -0.00000000000000000 -5.00000000000000000 1.00000000000000000 0.00000000000000000 
1 -278.50000000000000000 -385.00000000000000000 1.00000000000000000 -0.00000000000000000 
1 557.00000000000000000 -23.00000000000000000 -1.00000000000000000 0.00000000000000000 
1 0.00000000000000000 0.00000000000000000 0.00000000000000000 -1.00000000000000000 
1 770.00000000000000000 0.00000000000000000 0.00000000000000000 -1.00000000000000000 
1 0.00000000000000000 0.00000000000000000 1.00000000000000000 0.00000000000000000 
1 0.00000000000000000 -28.00000000000000000 1.00000000000000000 0.00000000000000000 
1 278.50000000000000000 -385.00000000000000000 0.00000000000000000 1.00000000000000000 
1 0.00000000000000000 -0.00000000000000000 1.00000000000000000 0.00000000000000000 
1 0.00000000000000000 -28.00000000000000000 1.00000000000000000 0.00000000000000000 
1 278.50000000000000000 385.00000000000000000 -1.00000000000000000 0.00000000000000000 
1 -296.47250516956370348 381.42363140302882130 1.00000000000000000 0.00000000000000000 
1 -298.61831447232367509 384.39065618662579027 1.00000000000000000 0.00000000000000000 
1 0.00000000000000000 0.00000000000000000 1.00000000000000000 0.00000000000000000 
1 0.00000000000000000 -28.00000000000000000 1.00000000000000000 0.00000000000000000 
1 -278.50000000000000000 385.00000000000000000 0.00000000000000000 -1.00000000000000000 
1 770.00000000000000000 0.00000000000000000 0.00000000000000000 -1.00000000000000000 
1 0.00000000000000000 -0.00000000000000000 0.00000000000000000 -1.00000000000000000 
1 0.00000000000000000 0.00000000000000000 1.00000000000000000 0.00000000000000000 
1 0.00000000000000000 -5.00000000000000000 1.00000000000000000 0.00000000000000000 
1 -278.50000000000000000 385.00000000000000000 0.00000000000000000 -1.00000000000000000 
1 770.00000000000000000 -23.00000000000000000 -1.00000000000000000 0.00000000000000000 
1 20.00000000000000000 0.00000000000000000 0.00000000000000000 -1.00000000000000000 
1 0.00000000000000000 0.00000000000000000 0.00000000000000000 -1.00000000000000000 
1 750.00000000000000000 -28.00000000000000000 0.00000000000000000 1.00000000000000000 
1 0.00000000000000000 0.00000000000000000 0.00000000000000000 -1.00000000000000000 
1 20.00000000000000000 0.00000000000000000 0.00000000000000000 -1.00000000000000000 
1 20.00000000000000000 -28.00000000000000000 0.00000000000000000 1.00000000000000000 
1 0.00000000000000000 0.00000000000000000 1.00000000000000000 0.00000000000000000 
1 0.00000000000000000 -5.00000000000000000 1.00000000000000000 0.00000000000000000 
1 -278.50000000000000000 -365.00000000000000000 0.00000000000000000 -1.00000000000000000 
1 20.00000000000000000 -23.00000000000000000 -1.00000000000000000 0.00000000000000000 
1 0.00000000000000000 0.00000000000000000 1.00000000000000000 0.00000000000000000 
1 0.00000000000000000 -5.00000000000000000 1.00000000000000000 0.00000000000000000 
1 278.50000000000000000 385.00000000000000000 -1.00000000000000000 0.00000000000000000 
1 557.00000000000000000 -23.00000000000000000 -1.00000000000000000 -0.00000000000000000 
1 -278.50000000000000000 365.00000000000000000 1.00000000000000000 0.00000000000000000 
1 0.00000000000000000 0.00000000000000000 1.00000000000000000 0.00000000000000000 
1 0.00000000000000000 -5.00000000000000000 1.00000000000000000 0.00000000000000000 
1 278.50000000000000000 365.00000000000000000 -1.00000000000000000 0.00000000000000000 
1 -258.50000000000000000 365.00000000000000000 0.00000000000000000 -1.00000000000000000 
1 0.00000000000000000 0.00000000000000000 1.00000000000000000 0.00000000000000000 
1 0.00000000000000000 -5.00000000000000000 1.00000000000000000 0.00000000000000000 
1 258.50000000000000000 365.00000000000000000 0.00000000000000000 -1.00000000000000000 
1 -258.50000000000000000 -365.00000000000000000 -1.00000000000000000 0.00000000000000000 
1 0.00000000000000000 0.00000000000000000 1.00000000000000000 0.00000000000000000 
1 0.00000000000000000 -5.00000000000000000 1.00000000000000000 0.00000000000000000 
1 258.50000000000000000 -365.00000000000000000 1.00000000000000000 0.00000000000000000 
1 0.00000000000000000 0.00000000000000000 1.00000000000000000 0.00000000000000000 
1 0.00000000000000000 -5.00000000000000000 1.00000000000000000 0.00000000000000000 
1 278.50000000000000000 -385.00000000000000000 0.00000000000000000 1.00000000000000000 
1 770.00000000000000000 -23.00000000000000000 -1.00000000000000000 0.00000000000000000 
1 278.50000000000000000 -365.00000000000000000 -1.00000000000000000 0.00000000000000000 
1 0.00000000000000000 0.00000000000000000 1.00000000000000000 0.00000000000000000 
1 0.00000000000000000 -5.00000000000000000 1.00000000000000000 0.00000000000000000 
1 -278.50000000000000000 -365.00000000000000000 1.00000000000000000 0.00000000000000000 
1 258.50000000000000000 -365.00000000000000000 0.00000000000000000 1.00000000000000000 
1 0.00000000000000000 0.00000000000000000 1.00000000000000000 0.00000000000000000 
1 0.00000000000000000 -5.00000000000000000 1.00000000000000000 0.00000000000000000 
1 -258.50000000000000000 -365.00000000000000000 0.00000000000000000 1.00000000000000000 
1 258.50000000000000000 365.00000000000000000 1.00000000000000000 0.00000000000000000 
1 0.00000000000000000 0.00000000000000000 1.00000000000000000 0.00000000000000000 
1 0.00000000000000000 -5.00000000000000000 1.00000000000000000 0.00000000000000000 
1 -258.50000000000000000 365.00000000000000000 -1.00000000000000000 0.00000000000000000 
1 0.00000000000000000 0.00000000000000000 1.00000000000000000 0.00000000000000000 
1 0.00000000000000000 -5.00000000000000000 1.00000000000000000 0.00000000000000000 
1 278.50000000000000000 365.00000000000000000 0.00000000000000000 1.00000000000000000 
1 20.00000000000000000 -23.00000000000000000 -1.00000000000000000 0.00000000000000000 
1 228.50000000000000000 -365.00000000000000000 0.00000000000000000 1.00000000000000000 
1 0.00000000000000000 0.00000000000000000 1.00000000000000000 0.00000000000000000 
1 0.00000000000000000 -5.00000000000000000 1.00000000000000000 0.00000000000000000 
1 -228.50000000000000000 -365.00000000000000000 0.00000000000000000 1.00000000000000000 
1 8.50000000000000000 -365.00000000000000000 1.00000000000000000 0.00000000000000000 
1 0.00000000000000000 0.00000000000000000 1.00000000000000000 0.00000000000000000 
1 0.00000000000000000 -5.00000000000000000 1.00000000000000000 0.00000000000000000 
1 -8.50000000000000000 -365.00000000000000000 -1.00000000000000000 0.00000000000000000 
1 8.50000000000000000 365.00000000000000000 0.00000000000000000 -1.00000000000000000 
1 0.00000000000000000 0.00000000000000000 1.00000000000000000 0.00000000000000000 
1 0.00000000000000000 -5.00000000000000000 1.00000000000000000 0.00000000000000000 
1 -8.50000000000000000 365.00000000000000000 0.00000000000000000 -1.00000000000000000 
1 228.50000000000000000 365.00000000000000000 -1.00000000000000000 0.00000000000000000 
1 0.00000000000000000 0.00000000000000000 1.00000000000000000 0.00000000000000000 
1 0.00000000000000000 -5.00000000000000000 1.00000000000000000 0.00000000000000000 
1 -228.50000000000000000 365.00000000000000000 1.00000000000000000 0.00000000000000000 
1 -21.50000000000000000 -365.00000000000000000 0.00000000000000000 1.00000000000000000 
1 0.00000000000000000 0.00000000000000000 1.00000000000000000 0.00000000000000000 
1 0.00000000000000000 -5.00000000000000000 1.00000000000000000 0.00000000000000000 
1 21.50000000000000000 -365.00000000000000000 0.00000000000000000 1.00000000000000000 
1 -228.50000000000000000 -365.00000000000000000 1.00000000000000000 0.00000000000000000 
1 0.00000000000000000 0.00000000000000000 1.00000000000000000 0.00000000000000000 
1 0.00000000000000000 -5.00000000000000000 1.00000000000000000 0.00000000000000000 
1 228.50000000000000000 -365.00000000000000000 -1.00000000000000000 0.00000000000000000 
1 -228.50000000000000000 365.00000000000000000 0.00000000000000000 -1.00000000000000000 
1 0.00000000000000000 0.00000000000000000 1.00000000000000000 0.00000000000000000 
1 0.00000000000000000 -5.00000000000000000 1.00000000000000000 0.00000000000000000 
1 228.50000000000000000 365.00000000000000000 0.00000000000000000 -1.00000000000000000 
1 -21.50000000000000000 365.00000000000000000 -1.00000000000000000 0.00000000000000000 
1 0.00000000000000000 0.00000000000000000 1.00000000000000000 0.00000000000000000 
1 0.00000000000000000 -5.00000000000000000 1.00000000000000000 0.00000000000000000 
1 21.50000000000000000 365.00000000000000000 1.00000000000000000 0.00000000000000000 
1 20.00000000000000000 0.00000000000000000 0.00000000000000000 -1.00000000000000000 
1 0.00000000000000000 0.00000000000000000 0.00000000000000000 -1.00000000000000000 
1 750.00000000000000000 -28.00000000000000000 0.00000000000000000 1.00000000000000000 
1 0.00000000000000000 0.00000000000000000 0.00000000000000000 -1.00000000000000000 
1 20.00000000000000000 0.00000000000000000 0.00000000000000000 -1.00000000000000000 
1 20.00000000000000000 -28.00000000000000000 0.00000000000000000 1.00000000000000000 
1 557.00000000000000000 0.00000000000000000 0.00000000000000000 -1.00000000000000000 
1 0.00000000000000000 0.00000000000000000 0.00000000000000000 -1.00000000000000000 
1 20.00000000000000000 0.00000000000000000 0.00000000000000000 -1.00000000000000000 
1 0.00000000000000000 0.00000000000000000 0.00000000000000000 -1.00000000000000000 
1 0.00000000000000000 0.00000000000000000 0.00000000000000000 -1.00000000000000000 
1 730.00000000000000000 0.00000000000000000 0.00000000000000000 -1.00000000000000000 
1 20.00000000000000000 0.00000000000000000 0.00000000000000000 -1.00000000000000000 
1 0.00000000000000000 0.00000000000000000 0.00000000000000000 -1.00000000000000000 
1 0.00000000000000000 0.00000000000000000 0.00000000000000000 -1.00000000000000000 
1 730.00000000000000000 0.00000000000000000 0.00000000000000000 -1.00000000000000000 
1 0.00000000000000000 0.00000000000000000 0.00000000000000000 -1.00000000000000000 
1 220.00000000000000000 0.00000000000000000 0.00000000000000000 -1.00000000000000000 
1 730.00000000000000000 0.00000000000000000 0.00000000000000000 -1.00000000000000000 
1 0.00000000000000000 0.00000000000000000 0.00000000000000000 -1.00000000000000000 
1 0.00000000000000000 0.00000000000000000 0.00000000000000000 -1.00000000000000000 
1 730.00000000000000000 0.00000000000000000 0.00000000000000000 -1.00000000000000000 
1 0.00000000000000000 0.00000000000000000 0.00000000000000000 -1.00000000000000000 
1 220.00000000000000000 0.00000000000000000 0.00000000000000000 -1.00000000000000000 
1 0.00000000000000000 0.00000000000000000 0.00000000000000000 -1.00000000000000000 
1 207.00000000000000000 0.00000000000000000 0.00000000000000000 -1.00000000000000000 
1 730.00000000000000000 0.00000000000000000 0.00000000000000000 -1.00000000000000000 
1 0.00000000000000000 0.00000000000000000 0.00000000000000000 -1.00000000000000000 
1 0.00000000000000000 0.00000000000000000 0.00000000000000000 -1.00000000000000000 
1 730.00000000000000000 0.00000000000000000 0.00000000000000000 -1.00000000000000000 
1 0.00000000000000000 0.00000000000000000 0.00000000000000000 -1.00000000000000000 
1 207.00000000000000000 0.00000000000000000 0.00000000000000000 -1.00000000000000000 
Curves 44
1 0.00000000000000000 0.00000000000000000 0.00000000000000000 1.00000000000000000 0.00000000000000000 0.00000000000000000 
1 557.00000000000000000 0.00000000000000000 0.00000000000000000 0.00000000000000000 0.00000000000000000 1.00000000000000000 
1 557.00000000000000000 0.00000000000000000 0.00000000000000000 -1.00000000000000000 -0.00000000000000000 0.00000000000000000 
1 0.00000000000000000 0.00000000000000000 0.00000000000000000 0.00000000000000000 0.00000000000000000 1.00000000000000000 
1 557.00000000000000000 0.00000000000000000 0.00000000000000000 0.00000000000000000 1.00000000000000000 0.00000000000000000 
1 557.00000000000000000 770.00000000000000000 0.00000000000000000 -1.00000000000000000 0.00000000000000000 0.00000000000000000 
1 0.00000000000000000 770.00000000000000000 0.00000000000000000 0.00000000000000000 -1.00000000000000000 0.00000000000000000 
1 557.00000000000000000 770.00000000000000000 0.00000000000000000 0.00000000000000000 0.00000000000000000 1.00000000000000000 
1 557.00000000000000000 770.00000000000000000 0.00000000000000000 0.00000000000000000 -1.00000000000000000 0.00000000000000000 
1 557.00000000000000000 750.00000000000000000 28.00000000000000000 -0.00000000000000000 -0.00000000000000000 -1.00000000000000000 
1 557.00000000000000000 20.00000000000000000 28.00000000000000000 -0.00000000000000000 -0.00000000000000000 -1.00000000000000000 
1 557.00000000000000000 20.00000000000000000 0.00000000000000000 0.00000000000000000 -1.00000000000000000 0.00000000000000000 
1 0.00000000000000000 770.00000000000000000 0.00000000000000000 1.00000000000000000 0.00000000000000000 0.00000000000000000 
1 557.00000000000000000 750.00000000000000000 0.00000000000000000 -1.00000000000000000 0.00000000000000000 0.00000000000000000 
1 537.00000000000000000 750.00000000000000000 0.00000000000000000 0.00000000000000000 -1.00000000000000000 0.00000000000000000 
1 537.00000000000000000 20.00000000000000000 0.00000000000000000 1.00000000000000000 0.00000000000000000 0.00000000000000000 
1 0.00000000000000000 -0.00000000000000000 0.00000000000000000 0.00000000000000000 1.00000000000000000 0.00000000000000000 
1 0.00000000000000000 20.00000000000000000 0.00000000000000000 1.00000000000000000 0.00000000000000000 0.00000000000000000 
1 20.00000000000000000 20.00000000000000000 0.00000000000000000 0.00000000000000000 1.00000000000000000 0.00000000000000000 
1 20.00000000000000000 750.00000000000000000 0.00000000000000000 -1.00000000000000000 0.00000000000000000 0.00000000000000000 
1 0.00000000000000000 750.00000000000000000 0.00000000000000000 0.00000000000000000 1.00000000000000000 0.00000000000000000 
1 50.00000000000000000 20.00000000000000000 0.00000000000000000 0.00000000000000000 1.00000000000000000 0.00000000000000000 
1 270.00000000000000000 20.00000000000000000 0.00000000000000000 -1.00000000000000000 0.00000000000000000 0.00000000000000000 
1 270.00000000000000000 750.00000000000000000 0.00000000000000000 0.00000000000000000 -1.00000000000000000 0.00000000000000000 
1 50.00000000000000000 750.00000000000000000 0.00000000000000000 1.00000000000000000 0.00000000000000000 0.00000000000000000 
1 300.00000000000000000 20.00000000000000000 0.00000000000000000 0.00000000000000000 1.00000000000000000 0.00000000000000000 
1 507.00000000000000000 20.00000000000000000 0.00000000000000000 -1.00000000000000000 0.00000000000000000 0.00000000000000000 
1 507.00000000000000000 750.00000000000000000 0.00000000000000000 0.00000000000000000 -1.00000000000000000 0.00000000000000000 
1 300.00000000000000000 750.00000000000000000 0.00000000000000000 1.00000000000000000 0.00000000000000000 0.00000000000000000 
1 0.00000000000000000 20.00000000000000000 28.00000000000000000 -0.00000000000000000 -0.00000000000000000 -1.00000000000000000 
1 0.00000000000000000 750.00000000000000000 28.00000000000000000 -0.00000000000000000 -0.00000000000000000 -1.00000000000000000 
1 0.00000000000000000 770.00000000000000000 0.00000000000000000 0.00000000000000000 0.00000000000000000 1.00000000000000000 
1 537.00000000000000000 750.00000000000000000 28.00000000000000000 -0.00000000000000000 -0.00000000000000000 -1.00000000000000000 
1 537.00000000000000000 20.00000000000000000 28.00000000000000000 -0.00000000000000000 -0.00000000000000000 -1.00000000000000000 
1 20.00000000000000000 20.00000000000000000 28.00000000000000000 -0.00000000000000000 -0.00000000000000000 -1.00000000000000000 
1 20.00000000000000000 750.00000000000000000 28.00000000000000000 -0.00000000000000000 -0.00000000000000000 -1.00000000000000000 
1 50.00000000000000000 20.00000000000000000 28.00000000000000000 -0.00000000000000000 -0.00000000000000000 -1.00000000000000000 
1 50.00000000000000000 750.00000000000000000 28.00000000000000000 -0.00000000000000000 -0.00000000000000000 -1.00000000000000000 
1 270.00000000000000000 20.00000000000000000 28.00000000000000000 -0.00000000000000000 -0.00000000000000000 -1.00000000000000000 
1 270.00000000000000000 750.00000000000000000 28.00000000000000000 -0.00000000000000000 -0.00000000000000000 -1.00000000000000000 
1 300.00000000000000000 20.00000000000000000 28.00000000000000000 -0.00000000000000000 -0.00000000000000000 -1.00000000000000000 
1 300.00000000000000000 750.00000000000000000 28.00000000000000000 -0.00000000000000000 -0.00000000000000000 -1.00000000000000000 
1 507.00000000000000000 20.00000000000000000 28.00000000000000000 -0.00000000000000000 -0.00000000000000000 -1.00000000000000000 
1 507.00000000000000000 750.00000000000000000 28.00000000000000000 -0.00000000000000000 -0.00000000000000000 -1.00000000000000000 
Polygon3D 0
PolygonOnTriangulations 0
Surfaces 28
1 0.00000000000000000 0.00000000000000000 0.00000000000000000 0.00000000000000000 1.00000000000000000 0.00000000000000000 1.00000000000000000 0.00000000000000000 0.00000000000000000 0.00000000000000000 0.00000000000000000 -1.00000000000000000 
1 278.50000000000000000 385.00000000000000000 0.00000000000000000 0.00000000000000000 0.00000000000000000 1.00000000000000000 1.00000000000000000 0.00000000000000000 -0.00000000000000000 -0.00000000000000000 1.00000000000000000 0.00000000000000000 
1 260.52749483043629652 388.57636859697117870 28.00000000000000000 -0.00000000000000000 -0.00000000000000000 -1.00000000000000000 -1.00000000000000000 0.00000000000000000 0.00000000000000000 0.00000000000000000 1.00000000000000000 -0.00000000000000000 
1 258.38168552767632491 385.60934381337420973 27.99999999999999289 -0.00000000000000000 -0.00000000000000000 -1.00000000000000000 -1.00000000000000000 0.00000000000000000 0.00000000000000000 0.00000000000000000 1.00000000000000000 -0.00000000000000000 
1 557.00000000000000000 0.00000000000000000 0.00000000000000000 -1.00000000000000000 0.00000000000000000 0.00000000000000000 0.00000000000000000 1.00000000000000000 0.00000000000000000 0.00000000000000000 0.00000000000000000 -1.00000000000000000 
1 557.00000000000000000 0.00000000000000000 28.00000000000000000 -0.00000000000000000 1.00000000000000000 0.00000000000000000 -1.00000000000000000 -0.00000000000000000 0.00000000000000000 0.00000000000000000 0.00000000000000000 1.00000000000000000 
1 278.50000000000000000 385.00000000000000000 28.00000000000000000 -0.00000000000000000 -0.00000000000000000 -1.00000000000000000 -1.00000000000000000 0.00000000000000000 0.00000000000000000 0.00000000000000000 1.00000000000000000 -0.00000000000000000 
1 0.00000000000000000 770.00000000000000000 0.00000000000000000 1.00000000000000000 0.00000000000000000 -0.00000000000000000 0.00000000000000000 -1.00000000000000000 0.00000000000000000 0.00000000000000000 -0.00000000000000000 -1.00000000000000000 
1 557.00000000000000000 770.00000000000000000 0.00000000000000000 0.00000000000000000 -1.00000000000000000 0.00000000000000000 -1.00000000000000000 0.00000000000000000 0.00000000000000000 -0.00000000000000000 -0.00000000000000000 -1.00000000000000000 
1 557.00000000000000000 770.00000000000000000 28.00000000000000000 -1.00000000000000000 0.00000000000000000 0.00000000000000000 0.00000000000000000 -1.00000000000000000 0.00000000000000000 0.00000000000000000 0.00000000000000000 1.00000000000000000 
1 557.00000000000000000 750.00000000000000000 28.00000000000000000 0.00000000000000000 1.00000000000000000 -0.00000000000000000 -1.00000000000000000 0.00000000000000000 0.00000000000000000 0.00000000000000000 0.00000000000000000 1.00000000000000000 
1 557.00000000000000000 20.00000000000000000 28.00000000000000000 -1.00000000000000000 0.00000000000000000 0.00000000000000000 0.00000000000000000 -1.00000000000000000 0.00000000000000000 0.00000000000000000 0.00000000000000000 1.00000000000000000 
1 537.00000000000000000 20.00000000000000000 28.00000000000000000 0.00000000000000000 -1.00000000000000000 0.00000000000000000 1.00000000000000000 0.00000000000000000 0.00000000000000000 -0.00000000000000000 0.00000000000000000 1.00000000000000000 
1 0.00000000000000000 770.00000000000000000 28.00000000000000000 0.00000000000000000 -1.00000000000000000 0.00000000000000000 1.00000000000000000 0.00000000000000000 0.00000000000000000 -0.00000000000000000 0.00000000000000000 1.00000000000000000 
1 537.00000000000000000 750.00000000000000000 28.00000000000000000 -1.00000000000000000 0.00000000000000000 0.00000000000000000 0.00000000000000000 -1.00000000000000000 0.00000000000000000 0.00000000000000000 0.00000000000000000 1.00000000000000000 
1 0.00000000000000000 -0.00000000000000000 28.00000000000000000 1.00000000000000000 0.00000000000000000 0.00000000000000000 -0.00000000000000000 1.00000000000000000 0.00000000000000000 0.00000000000000000 -0.00000000000000000 1.00000000000000000 
1 0.00000000000000000 20.00000000000000000 28.00000000000000000 0.00000000000000000 -1.00000000000000000 0.00000000000000000 1.00000000000000000 0.00000000000000000 0.00000000000000000 -0.00000000000000000 0.00000000000000000 1.00000000000000000 
1 20.00000000000000000 20.00000000000000000 28.00000000000000000 1.00000000000000000 0.00000000000000000 0.00000000000000000 -0.00000000000000000 1.00000000000000000 0.00000000000000000 0.00000000000000000 -0.00000000000000000 1.00000000000000000 
1 20.00000000000000000 750.00000000000000000 28.00000000000000000 0.00000000000000000 1.00000000000000000 -0.00000000000000000 -1.00000000000000000 0.00000000000000000 0.00000000000000000 0.00000000000000000 0.00000000000000000 1.00000000000000000 
1 0.00000000000000000 750.00000000000000000 28.00000000000000000 1.00000000000000000 0.00000000000000000 0.00000000000000000 -0.00000000000000000 1.00000000000000000 0.00000000000000000 0.00000000000000000 -0.00000000000000000 1.00000000000000000 
1 50.00000000000000000 20.00000000000000000 28.00000000000000000 1.00000000000000000 0.00000000000000000 0.00000000000000000 -0.00000000000000000 1.00000000000000000 0.00000000000000000 0.00000000000000000 -0.00000000000000000 1.00000000000000000 
1 270.00000000000000000 20.00000000000000000 28.00000000000000000 0.00000000000000000 1.00000000000000000 -0.00000000000000000 -1.00000000000000000 0.00000000000000000 0.00000000000000000 0.00000000000000000 0.00000000000000000 1.00000000000000000 
1 270.00000000000000000 750.00000000000000000 28.00000000000000000 -1.00000000000000000 0.00000000000000000 0.00000000000000000 0.00000000000000000 -1.00000000000000000 0.00000000000000000 0.00000000000000000 0.00000000000000000 1.00000000000000000 
1 50.00000000000000000 750.00000000000000000 28.00000000000000000 0.00000000000000000 -1.00000000000000000 0.00000000000000000 1.00000000000000000 0.00000000000000000 0.00000000000000000 -0.00000000000000000 0.00000000000000000 1.00000000000000000 
1 300.00000000000000000 20.00000000000000000 28.00000000000000000 1.00000000000000000 0.00000000000000000 0.00000000000000000 -0.00000000000000000 1.00000000000000000 0.00000000000000000 0.00000000000000000 -0.00000000000000000 1.00000000000000000 
1 507.00000000000000000 20.00000000000000000 28.00000000000000000 0.00000000000000000 1.00000000000000000 -0.00000000000000000 -1.00000000000000000 0.00000000000000000 0.00000000000000000 0.00000000000000000 0.00000000000000000 1.00000000000000000 
1 507.00000000000000000 750.00000000000000000 28.00000000000000000 -1.00000000000000000 0.00000000000000000 0.00000000000000000 0.00000000000000000 -1.00000000000000000 0.00000000000000000 0.00000000000000000 0.00000000000000000 1.00000000000000000 
1 300.00000000000000000 750.00000000000000000 28.00000000000000000 0.00000000000000000 -1.00000000000000000 0.00000000000000000 1.00000000000000000 0.00000000000000000 0.00000000000000000 -0.00000000000000000 0.00000000000000000 1.00000000000000000 
Triangulations 0

TShapes 122
Ve
0.000000100000007
0.000000000000000 0.000000000000000 0.000000000000000
0 0

0101101
*
Ve
0.000000100000007
557.000000000000000 0.000000000000000 0.000000000000000
0 0

0101101
*
Ed
 0.000000100000007 1 1 0
1  1 0 0.000000000000000 557.000000000000000
2  1 1 9 0.000000000000000 557.000000000000000
2  2 1 11 0.000000000000000 557.000000000000000
2  3 2 12 0.000000000000000 557.000000000000000
2  4 3 13 0.000000000000000 557.000000000000000
2  5 4 13 0.000000000000000 557.000000000000000
0

0101000
+122 0 -121 0 *
Ve
0.000000100000000
557.000000000000000 0.000000000000000 0.000000000000000
0 0

0101101
*
Ed
 0.000000100000000 1 1 0
1  2 0 0.000000000000000 23.000000000000000
2  6 1 0 0.000000000000000 23.000000000000000
2  7 5 0 0.000000000000000 23.000000000000000
0

0101000
+121 14 -119 18 *
Ve
0.000000100000000
0.000000000000000 -0.000000000000000 0.000000000000000
0 0

0101101
*
Ed
 0.000000100000000 1 1 0
1  3 0 0.000000000000000 557.000000000000000
2  8 6 20 0.000000000000000 557.000000000000000
2  9 6 21 0.000000000000000 557.000000000000000
2  10 7 22 0.000000000000000 557.000000000000000
2  11 1 23 0.000000000000000 557.000000000000000
0

0101000
+119 0 -117 0 *
Ed
 0.000000100000000 1 1 0
1  4 0 0.000000000000000 23.000000000000000
2  12 1 0 0.000000000000000 23.000000000000000
2  13 8 0 0.000000000000000 23.000000000000000
0

0101000
+122 14 -117 18 *
Wi

0101100
-120 8 -118 4 -116 19 +115 4 *
Fa
0  0.000000100000000 1 4

0111000
+114 0 *
Ve
0.000000100000007
557.000000000000000 770.000000000000000 0.000000000000000
0 0

0101101
*
Ed
 0.000000100000000 1 1 0
1  5 0 0.000000000000000 770.000000000000000
2  14 5 9 0.000000000000000 770.000000000000000
2  15 5 11 0.000000000000000 770.000000000000000
2  16 2 12 0.000000000000000 770.000000000000000
0

0101000
+121 0 -112 0 *
Ve
0.000000100000007
0.000000000000000 770.000000000000000 0.000000000000000
0 0

0101101
*
Ed
 0.000000100000007 1 1 0
1  6 0 0.000000000000000 557.000000000000000
2  17 9 9 0.000000000000000 557.000000000000000
2  18 9 11 0.000000000000000 557.000000000000000
2  19 2 12 0.000000000000000 557.000000000000000
2  20 3 13 0.000000000000000 557.000000000000000
2  21 4 13 0.000000000000000 557.000000000000000
0

0101000
+112 0 -110 0 *
Ed
 0.000000100000000 1 1 0
1  7 0 0.000000000000000 770.000000000000000
2  22 8 9 0.000000000000000 770.000000000000000
2  23 8 11 0.000000000000000 770.000000000000000
2  24 2 12 0.000000000000000 770.000000000000000
0

0101000
+110 0 -122 0 *
Wi

0101100
+120 0 +111 0 +109 0 +108 0 *
Fa
0  0.000000100000000 2 0

0111000
+107 25 *
Ve
0.000000100000000
557.000000000000000 770.000000000000000 0.000000000000000
0 0

0101101
*
Ed
 0.000000100000000 1 1 0
1  8 0 0.000000000000000 23.000000000000000
2  25 5 0 0.000000000000000 23.000000000000000
2  26 9 0 0.000000000000000 23.000000000000000
0

0101000
+112 14 -105 18 *
Ve
0.000000100000000
557.000000000000000 750.000000000000000 0.000000000000000
0 0

0101101
*
Ed
 0.000000100000000 1 1 0
1  9 0 0.000000000000000 20.000000000000000
2  27 10 20 0.000000000000000 20.000000000000000
2  28 10 21 0.000000000000000 20.000000000000000
2  29 7 22 0.000000000000000 20.000000000000000
2  30 5 23 0.000000000000000 20.000000000000000
0

0101000
+105 0 -103 0 *
Ed
 0.000000100000000 1 1 0
1  10 0 0.000000000000000 5.000000000000000
2  31 10 0 0.000000000000000 5.000000000000000
2  32 11 0 0.000000000000000 5.000000000000000
2  33 5 4 0.000000000000000 5.000000000000000
0

0101000
+103 26 -103 19 *
Ve
0.000000100000001
557.000000000000000 20.000000000000000 0.000000000000000
0 0

0101101
*
Ed
 0.000000100000000 1 1 0
1  5 0 20.000000000000000 750.000000000000000
2  14 5 9 20.000000000000000 750.000000000000000
2  15 5 11 20.000000000000000 750.000000000000000
2  16 2 12 20.000000000000000 750.000000000000000
0

0101000
+100 28 -103 28 *
Ed
 0.000000100000000 1 1 0
1  11 0 0.000000000000000 5.000000000000000
2  34 12 0 0.000000000000000 5.000000000000000
2  35 13 0 0.000000000000000 5.000000000000000
2  36 5 4 0.000000000000000 5.000000000000000
0

0101000
+100 26 -100 19 *
Ed
 0.000000100000000 1 1 0
1  12 0 0.000000000000000 20.000000000000000
2  37 12 20 0.000000000000000 20.000000000000000
2  38 12 21 0.000000000000000 20.000000000000000
2  39 7 22 0.000000000000000 20.000000000000000
2  40 5 23 0.000000000000000 20.000000000000000
0

0101000
+100 0 -119 0 *
Wi

0101100
-111 8 -104 4 -102 19 +101 0 +99 27 -98 0 -97 19 +118 4 *
Fa
0  0.000000100000000 5 4

0111000
+96 0 *
Ve
0.000000100000000
0.000000000000000 770.000000000000000 0.000000000000000
0 0

0101101
*
Ed
 0.000000100000000 1 1 0
1  13 0 0.000000000000000 557.000000000000000
2  41 14 20 0.000000000000000 557.000000000000000
2  42 14 21 0.000000000000000 557.000000000000000
2  43 7 22 0.000000000000000 557.000000000000000
2  44 9 23 0.000000000000000 557.000000000000000
0

0101000
+94 0 -105 0 *
Ve
0.000000100000000
537.000000000000000 750.000000000000000 0.000000000000000
0 0

0101101
*
Ed
 0.000000100000000 1 1 0
1  14 0 0.000000000000000 20.000000000000000
2  45 7 22 0.000000000000000 20.000000000000000
2  46 11 20 0.000000000000000 20.000000000000000
2  47 11 21 0.000000000000000 20.000000000000000
2  48 2 31 0.000000000000000 20.000000000000000
0

0101000
+103 0 -92 0 *
Ve
0.000000100000000
537.000000000000000 20.000000000000000 0.000000000000000
0 0

0101101
*
Ed
 0.000000100000000 1 1 0
1  15 0 0.000000000000000 730.000000000000000
2  49 7 22 0.000000000000000 730.000000000000000
2  50 15 20 0.000000000000000 730.000000000000000
2  51 15 21 0.000000000000000 730.000000000000000
2  52 2 31 0.000000000000000 730.000000000000000
0

0101000
+92 0 -90 0 *
Ed
 0.000000100000000 1 1 0
1  16 0 0.000000000000000 20.000000000000000
2  53 7 22 0.000000000000000 20.000000000000000
2  54 13 20 0.000000000000000 20.000000000000000
2  55 13 21 0.000000000000000 20.000000000000000
2  56 2 31 0.000000000000000 20.000000000000000
0

0101000
+90 0 -100 0 *
Ve
0.000000100000000
0.000000000000000 20.000000000000000 0.000000000000000
0 0

0101101
*
Ed
 0.000000100000000 1 1 0
1  17 0 0.000000000000000 20.000000000000000
2  57 16 20 0.000000000000000 20.000000000000000
2  58 16 21 0.000000000000000 20.000000000000000
2  59 7 22 0.000000000000000 20.000000000000000
2  60 8 23 0.000000000000000 20.000000000000000
0

0101000
+117 0 -87 0 *
Ve
0.000000100000000
20.000000000000000 20.000000000000000 0.000000000000000
0 0

0101101
*
Ed
 0.000000100000000 1 1 0
1  18 0 0.000000000000000 20.000000000000000
2  61 7 22 0.000000000000000 20.000000000000000
2  62 17 20 0.000000000000000 20.000000000000000
2  63 17 21 0.000000000000000 20.000000000000000
2  64 2 31 0.000000000000000 20.000000000000000
0

0101000
+87 0 -85 0 *
Ve
0.000000100000000
20.000000000000000 750.000000000000000 0.000000000000000
0 0

0101101
*
Ed
 0.000000100000000 1 1 0
1  19 0 0.000000000000000 730.000000000000000
2  65 7 22 0.000000000000000 730.000000000000000
2  66 18 20 0.000000000000000 730.000000000000000
2  67 18 21 0.000000000000000 730.000000000000000
2  68 2 31 0.000000000000000 730.000000000000000
0

0101000
+85 0 -83 0 *
Ve
0.000000100000000
0.000000000000000 750.000000000000000 0.000000000000000
0 0

0101101
*
Ed
 0.000000100000000 1 1 0
1  20 0 0.000000000000000 20.000000000000000
2  69 7 22 0.000000000000000 20.000000000000000
2  70 19 20 0.000000000000000 20.000000000000000
2  71 19 21 0.000000000000000 20.000000000000000
2  72 2 31 0.000000000000000 20.000000000000000
0

0101000
+83 0 -81 0 *
Ed
 0.000000100000000 1 1 0
1  21 0 0.000000000000000 20.000000000000000
2  73 20 20 0.000000000000000 20.000000000000000
2  74 20 21 0.000000000000000 20.000000000000000
2  75 7 22 0.000000000000000 20.000000000000000
2  76 8 23 0.000000000000000 20.000000000000000
0

0101000
+81 0 -94 0 *
Wi

0101100
+93 30 +102 30 +91 30 +89 30 +88 30 +97 30 +116 30 +86 30 +84 30 +82 30 
+80 30 +79 30 *
Ve
0.000000100000000
50.000000000000000 20.000000000000000 0.000000000000000
0 0

0101101
*
Ve
0.000000100000000
50.000000000000000 750.000000000000000 0.000000000000000
0 0

0101101
*
Ed
 0.000000100000000 1 1 0
1  22 0 0.000000000000000 730.000000000000000
2  77 7 22 0.000000000000000 730.000000000000000
2  78 21 20 0.000000000000000 730.000000000000000
2  79 21 21 0.000000000000000 730.000000000000000
2  80 2 31 0.000000000000000 730.000000000000000
0

0101000
+77 0 -76 0 *
Ve
0.000000100000000
270.000000000000000 20.000000000000000 0.000000000000000
0 0

0101101
*
Ed
 0.000000100000000 1 1 0
1  23 0 0.000000000000000 220.000000000000000
2  81 7 22 0.000000000000000 220.000000000000000
2  82 22 20 0.000000000000000 220.000000000000000
2  83 22 21 0.000000000000000 220.000000000000000
2  84 2 31 0.000000000000000 220.000000000000000
0

0101000
+74 0 -77 0 *
Ve
0.000000100000000
270.000000000000000 750.000000000000000 0.000000000000000
0 0

0101101
*
Ed
 0.000000100000000 1 1 0
1  24 0 0.000000000000000 730.000000000000000
2  85 7 22 0.000000000000000 730.000000000000000
2  86 23 20 0.000000000000000 730.000000000000000
2  87 23 21 0.000000000000000 730.000000000000000
2  88 2 31 0.000000000000000 730.000000000000000
0

0101000
+72 0 -74 0 *
Ed
 0.000000100000000 1 1 0
1  25 0 0.000000000000000 220.000000000000000
2  89 7 22 0.000000000000000 220.000000000000000
2  90 24 20 0.000000000000000 220.000000000000000
2  91 24 21 0.000000000000000 220.000000000000000
2  92 2 31 0.000000000000000 220.000000000000000
0

0101000
+76 0 -72 0 *
Wi

0101100
-75 30 -73 30 -71 30 -70 30 *
Ve
0.000000100000000
300.000000000000000 20.000000000000000 0.000000000000000
0 0

0101101
*
Ve
0.000000100000000
300.000000000000000 750.000000000000000 0.000000000000000
0 0

0101101
*
Ed
 0.000000100000000 1 1 0
1  26 0 0.000000000000000 730.000000000000000
2  93 7 22 0.000000000000000 730.000000000000000
2  94 25 20 0.000000000000000 730.000000000000000
2  95 25 21 0.000000000000000 730.000000000000000
2  96 2 31 0.000000000000000 730.000000000000000
0

0101000
+68 0 -67 0 *
Ve
0.000000100000000
507.000000000000000 20.000000000000000 0.000000000000000
0 0

0101101
*
Ed
 0.000000100000000 1 1 0
1  27 0 0.000000000000000 207.000000000000000
2  97 7 22 0.000000000000000 207.000000000000000
2  98 26 20 0.000000000000000 207.000000000000000
2  99 26 21 0.000000000000000 207.000000000000000
2  100 2 31 0.000000000000000 207.000000000000000
0

0101000
+65 0 -68 0 *
Ve
0.000000100000000
507.000000000000000 750.000000000000000 0.000000000000000
0 0

0101101
*
Ed
 0.000000100000000 1 1 0
1  28 0 0.000000000000000 730.000000000000000
2  101 7 22 0.000000000000000 730.000000000000000
2  102 27 20 0.000000000000000 730.000000000000000
2  103 27 21 0.000000000000000 730.000000000000000
2  104 2 31 0.000000000000000 730.000000000000000
0

0101000
+63 0 -65 0 *
Ed
 0.000000100000000 1 1 0
1  29 0 0.000000000000000 207.000000000000000
2  105 7 22 0.000000000000000 207.000000000000000
2  106 28 20 0.000000000000000 207.000000000000000
2  107 28 21 0.000000000000000 207.000000000000000
2  108 2 31 0.000000000000000 207.000000000000000
0

0101000
+67 0 -63 0 *
Wi

0101100
-66 30 -64 30 -62 30 -61 30 *
Fa
0  0.000000100000000 7 0

0111000
+78 0 +69 0 +60 0 *
Ed
 0.000000100000000 1 1 0
1  30 0 0.000000000000000 5.000000000000000
2  109 16 0 0.000000000000000 5.000000000000000
2  110 17 0 0.000000000000000 5.000000000000000
2  111 8 4 0.000000000000000 5.000000000000000
0

0101000
+87 26 -87 19 *
Ed
 0.000000100000000 1 1 0
1  7 0 20.000000000000000 750.000000000000000
2  22 8 9 20.000000000000000 750.000000000000000
2  23 8 11 20.000000000000000 750.000000000000000
2  24 2 12 20.000000000000000 750.000000000000000
0

0101000
+81 28 -87 28 *
Ed
 0.000000100000000 1 1 0
1  31 0 0.000000000000000 5.000000000000000
2  112 20 0 0.000000000000000 5.000000000000000
2  113 19 0 0.000000000000000 5.000000000000000
2  114 8 4 0.000000000000000 5.000000000000000
0

0101000
+81 26 -81 19 *
Ed
 0.000000100000000 1 1 0
1  32 0 0.000000000000000 23.000000000000000
2  115 9 0 0.000000000000000 23.000000000000000
2  116 8 0 0.000000000000000 23.000000000000000
0

0101000
+110 14 -94 18 *
Wi

0101100
-108 8 -115 4 -86 19 +58 0 +57 27 -56 0 -79 19 +55 4 *
Fa
0  0.000000100000000 8 4

0111000
+54 0 *
Wi

0101100
-109 8 -55 4 -93 19 +104 4 *
Fa
0  0.000000100000000 9 4

0111000
+52 0 *
Ed
 0.000000100000000 1 1 0
1  33 0 0.000000000000000 5.000000000000000
2  117 11 0 0.000000000000000 5.000000000000000
2  118 15 0 0.000000000000000 5.000000000000000
0

0101000
+92 26 -92 19 *
Wi

0101100
+101 0 -50 0 -91 26 +91 19 *
Fa
0  0.000000100000000 11 0

0111000
+49 0 *
Wi

0101100
+88 26 +89 26 +91 26 +99 27 *
Fa
0  0.000000100000000 2 32

0111000
+47 0 *
Ed
 0.000000100000000 1 1 0
1  34 0 0.000000000000000 5.000000000000000
2  119 13 0 0.000000000000000 5.000000000000000
2  120 15 0 0.000000000000000 5.000000000000000
0

0101000
+90 26 -90 19 *
Wi

0101100
+45 0 -98 0 -88 26 +88 19 *
Fa
0  0.000000100000000 13 0

0111000
+44 0 *
Wi

0101100
+50 0 -45 0 -89 26 +89 19 *
Fa
0  0.000000100000000 15 0

0111000
+42 0 *
Ed
 0.000000100000000 1 1 0
1  35 0 0.000000000000000 5.000000000000000
2  121 17 0 0.000000000000000 5.000000000000000
2  122 18 0 0.000000000000000 5.000000000000000
0

0101000
+85 26 -85 19 *
Wi

0101100
+58 0 -40 0 -84 26 +84 19 *
Fa
0  0.000000100000000 17 0

0111000
+39 0 *
Ed
 0.000000100000000 1 1 0
1  36 0 0.000000000000000 5.000000000000000
2  123 19 0 0.000000000000000 5.000000000000000
2  124 18 0 0.000000000000000 5.000000000000000
0

0101000
+83 26 -83 19 *
Wi

0101100
+40 0 -37 0 -82 26 +82 19 *
Fa
0  0.000000100000000 18 0

0111000
+36 0 *
Wi

0101100
+37 0 -56 0 -80 26 +80 19 *
Fa
0  0.000000100000000 19 0

0111000
+34 0 *
Ed
 0.000000100000000 1 1 0
1  37 0 0.000000000000000 5.000000000000000
2  125 21 0 0.000000000000000 5.000000000000000
2  126 22 0 0.000000000000000 5.000000000000000
0

0101000
+77 26 -77 19 *
Ed
 0.000000100000000 1 1 0
1  38 0 0.000000000000000 5.000000000000000
2  127 21 0 0.000000000000000 5.000000000000000
2  128 24 0 0.000000000000000 5.000000000000000
0

0101000
+76 26 -76 19 *
Wi

0101100
+32 0 -31 0 -75 26 +75 19 *
Fa
0  0.000000100000000 21 0

0111000
+30 0 *
Ed
 0.000000100000000 1 1 0
1  39 0 0.000000000000000 5.000000000000000
2  129 22 0 0.000000000000000 5.000000000000000
2  130 23 0 0.000000000000000 5.000000000000000
0

0101000
+74 26 -74 19 *
Wi

0101100
+28 0 -32 0 -73 26 +73 19 *
Fa
0  0.000000100000000 22 0

0111000
+27 0 *
Ed
 0.000000100000000 1 1 0
1  40 0 0.000000000000000 5.000000000000000
2  131 23 0 0.000000000000000 5.000000000000000
2  132 24 0 0.000000000000000 5.000000000000000
0

0101000
+72 26 -72 19 *
Wi

0101100
+25 0 -28 0 -71 26 +71 19 *
Fa
0  0.000000100000000 23 0

0111000
+24 0 *
Wi

0101100
+31 0 -25 0 -70 26 +70 19 *
Fa
0  0.000000100000000 24 0

0111000
+22 0 *
Ed
 0.000000100000000 1 1 0
1  41 0 0.000000000000000 5.000000000000000
2  133 25 0 0.000000000000000 5.000000000000000
2  134 26 0 0.000000000000000 5.000000000000000
0

0101000
+68 26 -68 19 *
Ed
 0.000000100000000 1 1 0
1  42 0 0.000000000000000 5.000000000000000
2  135 25 0 0.000000000000000 5.000000000000000
2  136 28 0 0.000000000000000 5.000000000000000
0

0101000
+67 26 -67 19 *
Wi

0101100
+20 0 -19 0 -66 26 +66 19 *
Fa
0  0.000000100000000 25 0

0111000
+18 0 *
Ed
 0.000000100000000 1 1 0
1  43 0 0.000000000000000 5.000000000000000
2  137 26 0 0.000000000000000 5.000000000000000
2  138 27 0 0.000000000000000 5.000000000000000
0

0101000
+65 26 -65 19 *
Wi

0101100
+16 0 -20 0 -64 26 +64 19 *
Fa
0  0.000000100000000 26 0

0111000
+15 0 *
Ed
 0.000000100000000 1 1 0
1  44 0 0.000000000000000 5.000000000000000
2  139 27 0 0.000000000000000 5.000000000000000
2  140 28 0 0.000000000000000 5.000000000000000
0

0101000
+63 26 -63 19 *
Wi

0101100
+13 0 -16 0 -62 26 +62 19 *
Fa
0  0.000000100000000 27 0

0111000
+12 0 *
Wi

0101100
+19 0 -13 0 -61 26 +61 19 *
Fa
0  0.000000100000000 28 0

0111000
+10 0 *
Wi

0101100
+57 27 +80 26 +82 26 +84 26 *
Fa
0  0.000000100000000 2 32

0111000
+8 0 *
Wi

0101100
-75 26 -70 26 -71 26 -73 26 *
Fa
0  0.000000100000000 2 32

0111000
+6 0 *
Wi

0101100
-66 26 -61 26 -62 26 -64 26 *
Fa
0  0.000000100000000 2 32

0111000
+4 0 *
Sh

0101100
-113 0 -106 24 -95 0 -59 29 -53 0 -51 0 +48 0 +46 0 +43 0 +41 0 
+38 0 +35 0 +33 0 -29 0 -26 0 -23 0 -21 0 -17 0 -14 0 -11 0 
-9 0 +7 0 +5 0 +3 0 *
So

0100000
+2 0 *

+1 1 