
CASCADE Topology V1, (c) Matra-Datavision
Locations 18
1
1.000000000000000 0.000000000000000 0.000000000000000 0.000000000000000 
0.000000000000000 1.000000000000000 0.000000000000000 0.000000000000000 
0.000000000000000 0.000000000000000 1.000000000000000 0.000000000000000 
1
1.000000000000000 0.000000000000000 0.000000000000000 0.000000000000000 
0.000000000000000 1.000000000000000 0.000000000000000 0.000000000000000 
0.000000000000000 0.000000000000000 1.000000000000000 28.000000000000000 
1
1.000000000000000 0.000000000000000 0.000000000000000 0.000000000000000 
0.000000000000000 1.000000000000000 0.000000000000000 0.000000000000000 
0.000000000000000 0.000000000000000 1.000000000000000 0.000000000000000 
2  1 1 2 1 3 -1 0
1
1.000000000000000 0.000000000000000 0.000000000000000 -0.000000000000000 
0.000000000000000 1.000000000000000 0.000000000000000 -0.000000000000000 
0.000000000000000 0.000000000000000 1.000000000000000 -20.000000000000000 
2  1 1 2 1 3 -1 5 1 0
2  3 1 2 -1 1 -1 0
2  5 -1 3 1 2 -1 1 -1 0
2  2 -1 1 -1 0
1
1.000000000000000 0.000000000000000 0.000000000000000 0.000000000000000 
0.000000000000000 1.000000000000000 0.000000000000000 0.000000000000000 
0.000000000000000 0.000000000000000 1.000000000000000 0.000000000000000 
1
1.000000000000000 0.000000000000000 0.000000000000000 0.000000000000000 
0.000000000000000 1.000000000000000 0.000000000000000 0.000000000000000 
0.000000000000000 0.000000000000000 1.000000000000000 28.000000000000000 
1
1.000000000000000 0.000000000000000 0.000000000000000 0.000000000000000 
0.000000000000000 1.000000000000000 0.000000000000000 0.000000000000000 
0.000000000000000 0.000000000000000 1.000000000000000 0.000000000000000 
1
1.000000000000000 0.000000000000000 0.000000000000000 0.000000000000000 
0.000000000000000 1.000000000000000 0.000000000000000 0.000000000000000 
0.000000000000000 0.000000000000000 1.000000000000000 0.000000000000000 
1
1.000000000000000 0.000000000000000 0.000000000000000 0.000000000000000 
0.000000000000000 1.000000000000000 0.000000000000000 0.000000000000000 
0.000000000000000 0.000000000000000 1.000000000000000 0.000000000000000 
2  10 -1 11 1 12 1 13 -1 14 1 2 -1 1 -1 0
2  3 -1 0
2  1 1 2 1 0
2  3 -1 5 1 0
Curve2ds 120
1 0.00000000000000000 0.00000000000000000 0.00000000000000000 -1.00000000000000000 
1 6.28318530717958623 0.00000000000000000 0.00000000000000000 -1.00000000000000000 
1 0.00000000000000000 0.00000000000000000 1.00000000000000000 0.00000000000000000 
1 0.00000000000000000 -20.00000000000000000 1.00000000000000000 0.00000000000000000 
2 0.00000000000000000 -0.00000000000011369 1.00000000000000000 0.00000000000000000 -0.00000000000000000 1.00000000000000000 3.00000000000000000
2 178.50000000000000000 135.00000000000000000 1.00000000000000000 0.00000000000000000 -0.00000000000000000 1.00000000000000000 3.00000000000000000
1 0.00000000000000000 0.00000000000000000 0.00000000000000000 -1.00000000000000000 
1 6.28318530717958623 0.00000000000000000 0.00000000000000000 -1.00000000000000000 
1 0.00000000000000000 0.00000000000000000 1.00000000000000000 0.00000000000000000 
1 0.00000000000000000 -20.00000000000000000 1.00000000000000000 0.00000000000000000 
2 0.00000000000000000 -0.00000000000011369 1.00000000000000000 0.00000000000000000 -0.00000000000000000 1.00000000000000000 3.00000000000000000
2 88.50000000000000000 135.00000000000000000 1.00000000000000000 0.00000000000000000 -0.00000000000000000 1.00000000000000000 3.00000000000000000
1 0.00000000000000000 0.00000000000000000 0.00000000000000000 -1.00000000000000000 
1 6.28318530717958623 0.00000000000000000 0.00000000000000000 -1.00000000000000000 
1 0.00000000000000000 0.00000000000000000 1.00000000000000000 0.00000000000000000 
1 0.00000000000000000 -20.00000000000000000 1.00000000000000000 0.00000000000000000 
2 0.00000000000002842 -0.00000000000011369 1.00000000000000000 0.00000000000000000 -0.00000000000000000 1.00000000000000000 3.00000000000000000
2 -88.50000000000000000 135.00000000000000000 1.00000000000000000 0.00000000000000000 -0.00000000000000000 1.00000000000000000 3.00000000000000000
1 0.00000000000000000 0.00000000000000000 0.00000000000000000 -1.00000000000000000 
1 6.28318530717958623 0.00000000000000000 0.00000000000000000 -1.00000000000000000 
1 0.00000000000000000 0.00000000000000000 1.00000000000000000 0.00000000000000000 
1 0.00000000000000000 -20.00000000000000000 1.00000000000000000 0.00000000000000000 
2 -0.00000000000001421 -0.00000000000011369 1.00000000000000000 0.00000000000000000 -0.00000000000000000 1.00000000000000000 3.00000000000000000
2 -178.50000000000000000 135.00000000000000000 1.00000000000000000 0.00000000000000000 -0.00000000000000000 1.00000000000000000 3.00000000000000000
1 0.00000000000000000 0.00000000000000000 0.00000000000000000 -1.00000000000000000 
1 6.28318530717958623 0.00000000000000000 0.00000000000000000 -1.00000000000000000 
1 0.00000000000000000 0.00000000000000000 1.00000000000000000 0.00000000000000000 
1 0.00000000000000000 -20.00000000000000000 1.00000000000000000 0.00000000000000000 
2 0.00000000000000000 0.00000000000000000 1.00000000000000000 0.00000000000000000 -0.00000000000000000 1.00000000000000000 3.00000000000000000
2 178.50000000000000000 15.00000000000000000 1.00000000000000000 0.00000000000000000 -0.00000000000000000 1.00000000000000000 3.00000000000000000
1 0.00000000000000000 0.00000000000000000 0.00000000000000000 -1.00000000000000000 
1 6.28318530717958623 0.00000000000000000 0.00000000000000000 -1.00000000000000000 
1 0.00000000000000000 0.00000000000000000 1.00000000000000000 0.00000000000000000 
1 0.00000000000000000 -20.00000000000000000 1.00000000000000000 0.00000000000000000 
2 0.00000000000000000 0.00000000000000000 1.00000000000000000 0.00000000000000000 -0.00000000000000000 1.00000000000000000 3.00000000000000000
2 88.50000000000000000 15.00000000000000000 1.00000000000000000 0.00000000000000000 -0.00000000000000000 1.00000000000000000 3.00000000000000000
1 0.00000000000000000 0.00000000000000000 0.00000000000000000 -1.00000000000000000 
1 6.28318530717958623 0.00000000000000000 0.00000000000000000 -1.00000000000000000 
1 0.00000000000000000 0.00000000000000000 1.00000000000000000 0.00000000000000000 
1 0.00000000000000000 -20.00000000000000000 1.00000000000000000 0.00000000000000000 
2 -0.00000000000002842 0.00000000000000000 1.00000000000000000 0.00000000000000000 -0.00000000000000000 1.00000000000000000 3.00000000000000000
2 -88.50000000000000000 15.00000000000000000 1.00000000000000000 0.00000000000000000 -0.00000000000000000 1.00000000000000000 3.00000000000000000
1 0.00000000000000000 0.00000000000000000 0.00000000000000000 -1.00000000000000000 
1 6.28318530717958623 0.00000000000000000 0.00000000000000000 -1.00000000000000000 
1 0.00000000000000000 0.00000000000000000 1.00000000000000000 0.00000000000000000 
1 0.00000000000000000 -20.00000000000000000 1.00000000000000000 0.00000000000000000 
2 0.00000000000000000 0.00000000000000000 1.00000000000000000 0.00000000000000000 -0.00000000000000000 1.00000000000000000 3.00000000000000000
2 -178.50000000000000000 15.00000000000000000 1.00000000000000000 0.00000000000000000 -0.00000000000000000 1.00000000000000000 3.00000000000000000
1 0.00000000000000000 0.00000000000000000 0.00000000000000000 -1.00000000000000000 
1 6.28318530717958623 0.00000000000000000 0.00000000000000000 -1.00000000000000000 
1 0.00000000000000000 0.00000000000000000 1.00000000000000000 0.00000000000000000 
1 0.00000000000000000 -20.00000000000000000 1.00000000000000000 0.00000000000000000 
2 0.00000000000000000 0.00000000000000000 1.00000000000000000 0.00000000000000000 -0.00000000000000000 1.00000000000000000 3.00000000000000000
2 178.50000000000000000 -105.00000000000000000 1.00000000000000000 0.00000000000000000 -0.00000000000000000 1.00000000000000000 3.00000000000000000
1 0.00000000000000000 0.00000000000000000 0.00000000000000000 -1.00000000000000000 
1 6.28318530717958623 0.00000000000000000 0.00000000000000000 -1.00000000000000000 
1 0.00000000000000000 0.00000000000000000 1.00000000000000000 0.00000000000000000 
1 0.00000000000000000 -20.00000000000000000 1.00000000000000000 0.00000000000000000 
2 0.00000000000000000 0.00000000000000000 1.00000000000000000 0.00000000000000000 -0.00000000000000000 1.00000000000000000 3.00000000000000000
2 88.50000000000000000 -105.00000000000000000 1.00000000000000000 0.00000000000000000 -0.00000000000000000 1.00000000000000000 3.00000000000000000
1 0.00000000000000000 0.00000000000000000 0.00000000000000000 -1.00000000000000000 
1 6.28318530717958623 0.00000000000000000 0.00000000000000000 -1.00000000000000000 
1 0.00000000000000000 0.00000000000000000 1.00000000000000000 0.00000000000000000 
1 0.00000000000000000 -20.00000000000000000 1.00000000000000000 0.00000000000000000 
2 -0.00000000000002842 0.00000000000000000 1.00000000000000000 0.00000000000000000 -0.00000000000000000 1.00000000000000000 3.00000000000000000
2 -88.50000000000000000 -105.00000000000000000 1.00000000000000000 0.00000000000000000 -0.00000000000000000 1.00000000000000000 3.00000000000000000
1 0.00000000000000000 0.00000000000000000 0.00000000000000000 -1.00000000000000000 
1 6.28318530717958623 0.00000000000000000 0.00000000000000000 -1.00000000000000000 
1 0.00000000000000000 0.00000000000000000 1.00000000000000000 0.00000000000000000 
1 0.00000000000000000 -20.00000000000000000 1.00000000000000000 0.00000000000000000 
2 0.00000000000000000 0.00000000000000000 1.00000000000000000 0.00000000000000000 -0.00000000000000000 1.00000000000000000 3.00000000000000000
2 -178.50000000000000000 -105.00000000000000000 1.00000000000000000 0.00000000000000000 -0.00000000000000000 1.00000000000000000 3.00000000000000000
1 0.00000000000000000 0.00000000000000000 0.00000000000000000 -1.00000000000000000 
1 6.28318530717958623 0.00000000000000000 0.00000000000000000 -1.00000000000000000 
1 0.00000000000000000 0.00000000000000000 1.00000000000000000 0.00000000000000000 
1 0.00000000000000000 -20.00000000000000000 1.00000000000000000 0.00000000000000000 
2 0.00000000000000000 0.00000000000000000 1.00000000000000000 0.00000000000000000 -0.00000000000000000 1.00000000000000000 3.00000000000000000
2 178.50000000000000000 -225.00000000000000000 1.00000000000000000 0.00000000000000000 -0.00000000000000000 1.00000000000000000 3.00000000000000000
1 0.00000000000000000 0.00000000000000000 0.00000000000000000 -1.00000000000000000 
1 6.28318530717958623 0.00000000000000000 0.00000000000000000 -1.00000000000000000 
1 0.00000000000000000 0.00000000000000000 1.00000000000000000 0.00000000000000000 
1 0.00000000000000000 -20.00000000000000000 1.00000000000000000 0.00000000000000000 
2 0.00000000000000000 0.00000000000000000 1.00000000000000000 0.00000000000000000 -0.00000000000000000 1.00000000000000000 3.00000000000000000
2 88.50000000000000000 -225.00000000000000000 1.00000000000000000 0.00000000000000000 -0.00000000000000000 1.00000000000000000 3.00000000000000000
1 0.00000000000000000 0.00000000000000000 0.00000000000000000 -1.00000000000000000 
1 6.28318530717958623 0.00000000000000000 0.00000000000000000 -1.00000000000000000 
1 0.00000000000000000 0.00000000000000000 1.00000000000000000 0.00000000000000000 
1 0.00000000000000000 -20.00000000000000000 1.00000000000000000 0.00000000000000000 
2 -0.00000000000002842 0.00000000000000000 1.00000000000000000 0.00000000000000000 -0.00000000000000000 1.00000000000000000 3.00000000000000000
2 -88.50000000000000000 -225.00000000000000000 1.00000000000000000 0.00000000000000000 -0.00000000000000000 1.00000000000000000 3.00000000000000000
1 0.00000000000000000 0.00000000000000000 0.00000000000000000 -1.00000000000000000 
1 6.28318530717958623 0.00000000000000000 0.00000000000000000 -1.00000000000000000 
1 0.00000000000000000 0.00000000000000000 1.00000000000000000 0.00000000000000000 
1 0.00000000000000000 -20.00000000000000000 1.00000000000000000 0.00000000000000000 
2 0.00000000000000000 0.00000000000000000 1.00000000000000000 0.00000000000000000 -0.00000000000000000 1.00000000000000000 3.00000000000000000
2 -178.50000000000000000 -225.00000000000000000 1.00000000000000000 0.00000000000000000 -0.00000000000000000 1.00000000000000000 3.00000000000000000
1 0.00000000000000000 0.00000000000000000 0.00000000000000000 -1.00000000000000000 
1 6.28318530717958623 0.00000000000000000 0.00000000000000000 -1.00000000000000000 
1 0.00000000000000000 0.00000000000000000 1.00000000000000000 0.00000000000000000 
1 0.00000000000000000 -20.00000000000000000 1.00000000000000000 0.00000000000000000 
2 0.00000000000000000 0.00000000000000000 1.00000000000000000 0.00000000000000000 -0.00000000000000000 1.00000000000000000 3.00000000000000000
2 178.50000000000000000 -345.00000000000000000 1.00000000000000000 0.00000000000000000 -0.00000000000000000 1.00000000000000000 3.00000000000000000
1 0.00000000000000000 0.00000000000000000 0.00000000000000000 -1.00000000000000000 
1 6.28318530717958623 0.00000000000000000 0.00000000000000000 -1.00000000000000000 
1 0.00000000000000000 0.00000000000000000 1.00000000000000000 0.00000000000000000 
1 0.00000000000000000 -20.00000000000000000 1.00000000000000000 0.00000000000000000 
2 0.00000000000000000 0.00000000000000000 1.00000000000000000 0.00000000000000000 -0.00000000000000000 1.00000000000000000 3.00000000000000000
2 88.50000000000000000 -345.00000000000000000 1.00000000000000000 0.00000000000000000 -0.00000000000000000 1.00000000000000000 3.00000000000000000
1 0.00000000000000000 0.00000000000000000 0.00000000000000000 -1.00000000000000000 
1 6.28318530717958623 0.00000000000000000 0.00000000000000000 -1.00000000000000000 
1 0.00000000000000000 0.00000000000000000 1.00000000000000000 0.00000000000000000 
1 0.00000000000000000 -20.00000000000000000 1.00000000000000000 0.00000000000000000 
2 -0.00000000000002842 0.00000000000000000 1.00000000000000000 0.00000000000000000 -0.00000000000000000 1.00000000000000000 3.00000000000000000
2 -88.50000000000000000 -345.00000000000000000 1.00000000000000000 0.00000000000000000 -0.00000000000000000 1.00000000000000000 3.00000000000000000
1 0.00000000000000000 0.00000000000000000 0.00000000000000000 -1.00000000000000000 
1 6.28318530717958623 0.00000000000000000 0.00000000000000000 -1.00000000000000000 
1 0.00000000000000000 0.00000000000000000 1.00000000000000000 0.00000000000000000 
1 0.00000000000000000 -20.00000000000000000 1.00000000000000000 0.00000000000000000 
2 0.00000000000000000 0.00000000000000000 1.00000000000000000 0.00000000000000000 -0.00000000000000000 1.00000000000000000 3.00000000000000000
2 -178.50000000000000000 -345.00000000000000000 1.00000000000000000 0.00000000000000000 -0.00000000000000000 1.00000000000000000 3.00000000000000000
Curves 40
1 460.00000000000000000 520.00000000000000000 28.00000000000000000 -0.00000000000000000 -0.00000000000000000 -1.00000000000000000 
2 457.00000000000000000 520.00000000000000000 0.00000000000000000 0.00000000000000000 0.00000000000000000 1.00000000000000000 1.00000000000000000 0.00000000000000000 -0.00000000000000000 -0.00000000000000000 1.00000000000000000 0.00000000000000000 3.00000000000000000
1 370.00000000000000000 520.00000000000000000 28.00000000000000000 -0.00000000000000000 -0.00000000000000000 -1.00000000000000000 
2 367.00000000000000000 520.00000000000000000 0.00000000000000000 0.00000000000000000 0.00000000000000000 1.00000000000000000 1.00000000000000000 0.00000000000000000 -0.00000000000000000 -0.00000000000000000 1.00000000000000000 0.00000000000000000 3.00000000000000000
1 193.00000000000000000 520.00000000000000000 28.00000000000000000 -0.00000000000000000 -0.00000000000000000 -1.00000000000000000 
2 190.00000000000000000 520.00000000000000000 0.00000000000000000 0.00000000000000000 0.00000000000000000 1.00000000000000000 1.00000000000000000 0.00000000000000000 -0.00000000000000000 -0.00000000000000000 1.00000000000000000 0.00000000000000000 3.00000000000000000
1 103.00000000000000000 520.00000000000000000 28.00000000000000000 -0.00000000000000000 -0.00000000000000000 -1.00000000000000000 
2 100.00000000000000000 520.00000000000000000 0.00000000000000000 0.00000000000000000 0.00000000000000000 1.00000000000000000 1.00000000000000000 0.00000000000000000 -0.00000000000000000 -0.00000000000000000 1.00000000000000000 0.00000000000000000 3.00000000000000000
1 460.00000000000000000 400.00000000000000000 28.00000000000000000 -0.00000000000000000 -0.00000000000000000 -1.00000000000000000 
2 457.00000000000000000 400.00000000000000000 0.00000000000000000 0.00000000000000000 0.00000000000000000 1.00000000000000000 1.00000000000000000 0.00000000000000000 -0.00000000000000000 -0.00000000000000000 1.00000000000000000 0.00000000000000000 3.00000000000000000
1 370.00000000000000000 400.00000000000000000 28.00000000000000000 -0.00000000000000000 -0.00000000000000000 -1.00000000000000000 
2 367.00000000000000000 400.00000000000000000 0.00000000000000000 0.00000000000000000 0.00000000000000000 1.00000000000000000 1.00000000000000000 0.00000000000000000 -0.00000000000000000 -0.00000000000000000 1.00000000000000000 0.00000000000000000 3.00000000000000000
1 193.00000000000000000 400.00000000000000000 28.00000000000000000 -0.00000000000000000 -0.00000000000000000 -1.00000000000000000 
2 190.00000000000000000 400.00000000000000000 0.00000000000000000 0.00000000000000000 0.00000000000000000 1.00000000000000000 1.00000000000000000 0.00000000000000000 -0.00000000000000000 -0.00000000000000000 1.00000000000000000 0.00000000000000000 3.00000000000000000
1 103.00000000000000000 400.00000000000000000 28.00000000000000000 -0.00000000000000000 -0.00000000000000000 -1.00000000000000000 
2 100.00000000000000000 400.00000000000000000 0.00000000000000000 0.00000000000000000 0.00000000000000000 1.00000000000000000 1.00000000000000000 0.00000000000000000 -0.00000000000000000 -0.00000000000000000 1.00000000000000000 0.00000000000000000 3.00000000000000000
1 460.00000000000000000 280.00000000000000000 28.00000000000000000 -0.00000000000000000 -0.00000000000000000 -1.00000000000000000 
2 457.00000000000000000 280.00000000000000000 0.00000000000000000 0.00000000000000000 0.00000000000000000 1.00000000000000000 1.00000000000000000 0.00000000000000000 -0.00000000000000000 -0.00000000000000000 1.00000000000000000 0.00000000000000000 3.00000000000000000
1 370.00000000000000000 280.00000000000000000 28.00000000000000000 -0.00000000000000000 -0.00000000000000000 -1.00000000000000000 
2 367.00000000000000000 280.00000000000000000 0.00000000000000000 0.00000000000000000 0.00000000000000000 1.00000000000000000 1.00000000000000000 0.00000000000000000 -0.00000000000000000 -0.00000000000000000 1.00000000000000000 0.00000000000000000 3.00000000000000000
1 193.00000000000000000 280.00000000000000000 28.00000000000000000 -0.00000000000000000 -0.00000000000000000 -1.00000000000000000 
2 190.00000000000000000 280.00000000000000000 0.00000000000000000 0.00000000000000000 0.00000000000000000 1.00000000000000000 1.00000000000000000 0.00000000000000000 -0.00000000000000000 -0.00000000000000000 1.00000000000000000 0.00000000000000000 3.00000000000000000
1 103.00000000000000000 280.00000000000000000 28.00000000000000000 -0.00000000000000000 -0.00000000000000000 -1.00000000000000000 
2 100.00000000000000000 280.00000000000000000 0.00000000000000000 0.00000000000000000 0.00000000000000000 1.00000000000000000 1.00000000000000000 0.00000000000000000 -0.00000000000000000 -0.00000000000000000 1.00000000000000000 0.00000000000000000 3.00000000000000000
1 460.00000000000000000 160.00000000000000000 28.00000000000000000 -0.00000000000000000 -0.00000000000000000 -1.00000000000000000 
2 457.00000000000000000 160.00000000000000000 0.00000000000000000 0.00000000000000000 0.00000000000000000 1.00000000000000000 1.00000000000000000 0.00000000000000000 -0.00000000000000000 -0.00000000000000000 1.00000000000000000 0.00000000000000000 3.00000000000000000
1 370.00000000000000000 160.00000000000000000 28.00000000000000000 -0.00000000000000000 -0.00000000000000000 -1.00000000000000000 
2 367.00000000000000000 160.00000000000000000 0.00000000000000000 0.00000000000000000 0.00000000000000000 1.00000000000000000 1.00000000000000000 0.00000000000000000 -0.00000000000000000 -0.00000000000000000 1.00000000000000000 0.00000000000000000 3.00000000000000000
1 193.00000000000000000 160.00000000000000000 28.00000000000000000 -0.00000000000000000 -0.00000000000000000 -1.00000000000000000 
2 190.00000000000000000 160.00000000000000000 0.00000000000000000 0.00000000000000000 0.00000000000000000 1.00000000000000000 1.00000000000000000 0.00000000000000000 -0.00000000000000000 -0.00000000000000000 1.00000000000000000 0.00000000000000000 3.00000000000000000
1 103.00000000000000000 160.00000000000000000 28.00000000000000000 -0.00000000000000000 -0.00000000000000000 -1.00000000000000000 
2 100.00000000000000000 160.00000000000000000 0.00000000000000000 0.00000000000000000 0.00000000000000000 1.00000000000000000 1.00000000000000000 0.00000000000000000 -0.00000000000000000 -0.00000000000000000 1.00000000000000000 0.00000000000000000 3.00000000000000000
1 460.00000000000000000 40.00000000000000000 28.00000000000000000 -0.00000000000000000 -0.00000000000000000 -1.00000000000000000 
2 457.00000000000000000 40.00000000000000000 0.00000000000000000 0.00000000000000000 0.00000000000000000 1.00000000000000000 1.00000000000000000 0.00000000000000000 -0.00000000000000000 -0.00000000000000000 1.00000000000000000 0.00000000000000000 3.00000000000000000
1 370.00000000000000000 40.00000000000000000 28.00000000000000000 -0.00000000000000000 -0.00000000000000000 -1.00000000000000000 
2 367.00000000000000000 40.00000000000000000 0.00000000000000000 0.00000000000000000 0.00000000000000000 1.00000000000000000 1.00000000000000000 0.00000000000000000 -0.00000000000000000 -0.00000000000000000 1.00000000000000000 0.00000000000000000 3.00000000000000000
1 193.00000000000000000 40.00000000000000000 28.00000000000000000 -0.00000000000000000 -0.00000000000000000 -1.00000000000000000 
2 190.00000000000000000 40.00000000000000000 0.00000000000000000 0.00000000000000000 0.00000000000000000 1.00000000000000000 1.00000000000000000 0.00000000000000000 -0.00000000000000000 -0.00000000000000000 1.00000000000000000 0.00000000000000000 3.00000000000000000
1 103.00000000000000000 40.00000000000000000 28.00000000000000000 -0.00000000000000000 -0.00000000000000000 -1.00000000000000000 
2 100.00000000000000000 40.00000000000000000 0.00000000000000000 0.00000000000000000 0.00000000000000000 1.00000000000000000 1.00000000000000000 0.00000000000000000 -0.00000000000000000 -0.00000000000000000 1.00000000000000000 0.00000000000000000 3.00000000000000000
Polygon3D 0
PolygonOnTriangulations 0
Surfaces 41
2 457.00000000000000000 520.00000000000000000 28.00000000000000000 0.00000000000000000 0.00000000000000000 1.00000000000000000 1.00000000000000000 0.00000000000000000 -0.00000000000000000 -0.00000000000000000 1.00000000000000000 0.00000000000000000 3.00000000000000000
1 457.00000000000000000 520.00000000000011369 28.00000000000000000 0.00000000000000000 0.00000000000000000 1.00000000000000000 1.00000000000000000 0.00000000000000000 -0.00000000000000000 -0.00000000000000000 1.00000000000000000 0.00000000000000000 
1 278.50000000000000000 385.00000000000000000 0.00000000000000000 0.00000000000000000 0.00000000000000000 1.00000000000000000 1.00000000000000000 0.00000000000000000 -0.00000000000000000 -0.00000000000000000 1.00000000000000000 0.00000000000000000 
2 367.00000000000000000 520.00000000000000000 28.00000000000000000 0.00000000000000000 0.00000000000000000 1.00000000000000000 1.00000000000000000 0.00000000000000000 -0.00000000000000000 -0.00000000000000000 1.00000000000000000 0.00000000000000000 3.00000000000000000
1 367.00000000000000000 520.00000000000011369 28.00000000000000000 0.00000000000000000 0.00000000000000000 1.00000000000000000 1.00000000000000000 0.00000000000000000 -0.00000000000000000 -0.00000000000000000 1.00000000000000000 0.00000000000000000 
2 190.00000000000000000 520.00000000000000000 28.00000000000000000 0.00000000000000000 0.00000000000000000 1.00000000000000000 1.00000000000000000 0.00000000000000000 -0.00000000000000000 -0.00000000000000000 1.00000000000000000 0.00000000000000000 3.00000000000000000
1 189.99999999999997158 520.00000000000011369 28.00000000000000000 0.00000000000000000 0.00000000000000000 1.00000000000000000 1.00000000000000000 0.00000000000000000 -0.00000000000000000 -0.00000000000000000 1.00000000000000000 0.00000000000000000 
2 100.00000000000000000 520.00000000000000000 28.00000000000000000 0.00000000000000000 0.00000000000000000 1.00000000000000000 1.00000000000000000 0.00000000000000000 -0.00000000000000000 -0.00000000000000000 1.00000000000000000 0.00000000000000000 3.00000000000000000
1 100.00000000000001421 520.00000000000011369 28.00000000000000000 0.00000000000000000 0.00000000000000000 1.00000000000000000 1.00000000000000000 0.00000000000000000 -0.00000000000000000 -0.00000000000000000 1.00000000000000000 0.00000000000000000 
2 457.00000000000000000 400.00000000000000000 28.00000000000000000 0.00000000000000000 0.00000000000000000 1.00000000000000000 1.00000000000000000 0.00000000000000000 -0.00000000000000000 -0.00000000000000000 1.00000000000000000 0.00000000000000000 3.00000000000000000
1 457.00000000000000000 400.00000000000000000 28.00000000000000000 0.00000000000000000 0.00000000000000000 1.00000000000000000 1.00000000000000000 0.00000000000000000 -0.00000000000000000 -0.00000000000000000 1.00000000000000000 0.00000000000000000 
2 367.00000000000000000 400.00000000000000000 28.00000000000000000 0.00000000000000000 0.00000000000000000 1.00000000000000000 1.00000000000000000 0.00000000000000000 -0.00000000000000000 -0.00000000000000000 1.00000000000000000 0.00000000000000000 3.00000000000000000
1 367.00000000000000000 400.00000000000000000 28.00000000000000000 0.00000000000000000 0.00000000000000000 1.00000000000000000 1.00000000000000000 0.00000000000000000 -0.00000000000000000 -0.00000000000000000 1.00000000000000000 0.00000000000000000 
2 190.00000000000000000 400.00000000000000000 28.00000000000000000 0.00000000000000000 0.00000000000000000 1.00000000000000000 1.00000000000000000 0.00000000000000000 -0.00000000000000000 -0.00000000000000000 1.00000000000000000 0.00000000000000000 3.00000000000000000
1 190.00000000000002842 400.00000000000000000 28.00000000000000000 0.00000000000000000 0.00000000000000000 1.00000000000000000 1.00000000000000000 0.00000000000000000 -0.00000000000000000 -0.00000000000000000 1.00000000000000000 0.00000000000000000 
2 100.00000000000000000 400.00000000000000000 28.00000000000000000 0.00000000000000000 0.00000000000000000 1.00000000000000000 1.00000000000000000 0.00000000000000000 -0.00000000000000000 -0.00000000000000000 1.00000000000000000 0.00000000000000000 3.00000000000000000
1 100.00000000000000000 400.00000000000000000 28.00000000000000000 0.00000000000000000 0.00000000000000000 1.00000000000000000 1.00000000000000000 0.00000000000000000 -0.00000000000000000 -0.00000000000000000 1.00000000000000000 0.00000000000000000 
2 457.00000000000000000 280.00000000000000000 28.00000000000000000 0.00000000000000000 0.00000000000000000 1.00000000000000000 1.00000000000000000 0.00000000000000000 -0.00000000000000000 -0.00000000000000000 1.00000000000000000 0.00000000000000000 3.00000000000000000
1 457.00000000000000000 280.00000000000000000 28.00000000000000000 0.00000000000000000 0.00000000000000000 1.00000000000000000 1.00000000000000000 0.00000000000000000 -0.00000000000000000 -0.00000000000000000 1.00000000000000000 0.00000000000000000 
2 367.00000000000000000 280.00000000000000000 28.00000000000000000 0.00000000000000000 0.00000000000000000 1.00000000000000000 1.00000000000000000 0.00000000000000000 -0.00000000000000000 -0.00000000000000000 1.00000000000000000 0.00000000000000000 3.00000000000000000
1 367.00000000000000000 280.00000000000000000 28.00000000000000000 0.00000000000000000 0.00000000000000000 1.00000000000000000 1.00000000000000000 0.00000000000000000 -0.00000000000000000 -0.00000000000000000 1.00000000000000000 0.00000000000000000 
2 190.00000000000000000 280.00000000000000000 28.00000000000000000 0.00000000000000000 0.00000000000000000 1.00000000000000000 1.00000000000000000 0.00000000000000000 -0.00000000000000000 -0.00000000000000000 1.00000000000000000 0.00000000000000000 3.00000000000000000
1 190.00000000000002842 280.00000000000000000 28.00000000000000000 0.00000000000000000 0.00000000000000000 1.00000000000000000 1.00000000000000000 0.00000000000000000 -0.00000000000000000 -0.00000000000000000 1.00000000000000000 0.00000000000000000 
2 100.00000000000000000 280.00000000000000000 28.00000000000000000 0.00000000000000000 0.00000000000000000 1.00000000000000000 1.00000000000000000 0.00000000000000000 -0.00000000000000000 -0.00000000000000000 1.00000000000000000 0.00000000000000000 3.00000000000000000
1 100.00000000000000000 280.00000000000000000 28.00000000000000000 0.00000000000000000 0.00000000000000000 1.00000000000000000 1.00000000000000000 0.00000000000000000 -0.00000000000000000 -0.00000000000000000 1.00000000000000000 0.00000000000000000 
2 457.00000000000000000 160.00000000000000000 28.00000000000000000 0.00000000000000000 0.00000000000000000 1.00000000000000000 1.00000000000000000 0.00000000000000000 -0.00000000000000000 -0.00000000000000000 1.00000000000000000 0.00000000000000000 3.00000000000000000
1 457.00000000000000000 160.00000000000000000 28.00000000000000000 0.00000000000000000 0.00000000000000000 1.00000000000000000 1.00000000000000000 0.00000000000000000 -0.00000000000000000 -0.00000000000000000 1.00000000000000000 0.00000000000000000 
2 367.00000000000000000 160.00000000000000000 28.00000000000000000 0.00000000000000000 0.00000000000000000 1.00000000000000000 1.00000000000000000 0.00000000000000000 -0.00000000000000000 -0.00000000000000000 1.00000000000000000 0.00000000000000000 3.00000000000000000
1 367.00000000000000000 160.00000000000000000 28.00000000000000000 0.00000000000000000 0.00000000000000000 1.00000000000000000 1.00000000000000000 0.00000000000000000 -0.00000000000000000 -0.00000000000000000 1.00000000000000000 0.00000000000000000 
2 190.00000000000000000 160.00000000000000000 28.00000000000000000 0.00000000000000000 0.00000000000000000 1.00000000000000000 1.00000000000000000 0.00000000000000000 -0.00000000000000000 -0.00000000000000000 1.00000000000000000 0.00000000000000000 3.00000000000000000
1 190.00000000000002842 160.00000000000000000 28.00000000000000000 0.00000000000000000 0.00000000000000000 1.00000000000000000 1.00000000000000000 0.00000000000000000 -0.00000000000000000 -0.00000000000000000 1.00000000000000000 0.00000000000000000 
2 100.00000000000000000 160.00000000000000000 28.00000000000000000 0.00000000000000000 0.00000000000000000 1.00000000000000000 1.00000000000000000 0.00000000000000000 -0.00000000000000000 -0.00000000000000000 1.00000000000000000 0.00000000000000000 3.00000000000000000
1 100.00000000000000000 160.00000000000000000 28.00000000000000000 0.00000000000000000 0.00000000000000000 1.00000000000000000 1.00000000000000000 0.00000000000000000 -0.00000000000000000 -0.00000000000000000 1.00000000000000000 0.00000000000000000 
2 457.00000000000000000 40.00000000000000000 28.00000000000000000 0.00000000000000000 0.00000000000000000 1.00000000000000000 1.00000000000000000 0.00000000000000000 -0.00000000000000000 -0.00000000000000000 1.00000000000000000 0.00000000000000000 3.00000000000000000
1 457.00000000000000000 40.00000000000000000 28.00000000000000000 0.00000000000000000 0.00000000000000000 1.00000000000000000 1.00000000000000000 0.00000000000000000 -0.00000000000000000 -0.00000000000000000 1.00000000000000000 0.00000000000000000 
2 367.00000000000000000 40.00000000000000000 28.00000000000000000 0.00000000000000000 0.00000000000000000 1.00000000000000000 1.00000000000000000 0.00000000000000000 -0.00000000000000000 -0.00000000000000000 1.00000000000000000 0.00000000000000000 3.00000000000000000
1 367.00000000000000000 40.00000000000000000 28.00000000000000000 0.00000000000000000 0.00000000000000000 1.00000000000000000 1.00000000000000000 0.00000000000000000 -0.00000000000000000 -0.00000000000000000 1.00000000000000000 0.00000000000000000 
2 190.00000000000000000 40.00000000000000000 28.00000000000000000 0.00000000000000000 0.00000000000000000 1.00000000000000000 1.00000000000000000 0.00000000000000000 -0.00000000000000000 -0.00000000000000000 1.00000000000000000 0.00000000000000000 3.00000000000000000
1 190.00000000000002842 40.00000000000000000 28.00000000000000000 0.00000000000000000 0.00000000000000000 1.00000000000000000 1.00000000000000000 0.00000000000000000 -0.00000000000000000 -0.00000000000000000 1.00000000000000000 0.00000000000000000 
2 100.00000000000000000 40.00000000000000000 28.00000000000000000 0.00000000000000000 0.00000000000000000 1.00000000000000000 1.00000000000000000 0.00000000000000000 -0.00000000000000000 -0.00000000000000000 1.00000000000000000 0.00000000000000000 3.00000000000000000
1 100.00000000000000000 40.00000000000000000 28.00000000000000000 0.00000000000000000 0.00000000000000000 1.00000000000000000 1.00000000000000000 0.00000000000000000 -0.00000000000000000 -0.00000000000000000 1.00000000000000000 0.00000000000000000 
Triangulations 0

TShapes 181
Ve
0.000000100000000
460.000000000000000 520.000000000000000 0.000000000000000
0 0

0101101
*
Ed
 0.000000100000000 1 1 0
1  1 0 0.000000000000000 20.000000000000000
3  1 2CN 1 0 0.000000000000000 20.000000000000000
0

0101000
+181 4 -181 6 *
Ed
 0.000000100000000 1 1 0
1  2 0 0.000000000000000 6.283185307179586
2  3 1 7 0.000000000000000 6.283185307179586
2  4 1 8 0.000000000000000 6.283185307179586
2  5 2 9 0.000000000000000 6.283185307179586
2  6 3 15 0.000000000000000 6.283185307179586
0

0101000
+181 0 -181 0 *
Wi

0101100
+180 0 -180 0 -179 4 +179 6 *
Fa
0  0.000000100000000 1 0

0111000
+178 0 *
Wi

0101100
+179 0 *
Fa
0  0.000000100000000 2 0

0111000
+176 17 *
Sh

0101100
+177 0 +175 16 -175 18 *
So

0100000
+174 0 *
Ve
0.000000100000000
370.000000000000000 520.000000000000000 0.000000000000000
0 0

0101101
*
Ed
 0.000000100000000 1 1 0
1  3 0 0.000000000000000 20.000000000000000
3  7 8CN 4 0 0.000000000000000 20.000000000000000
0

0101000
+172 4 -172 6 *
Ed
 0.000000100000000 1 1 0
1  4 0 0.000000000000000 6.283185307179586
2  9 4 7 0.000000000000000 6.283185307179586
2  10 4 8 0.000000000000000 6.283185307179586
2  11 5 9 0.000000000000000 6.283185307179586
2  12 3 15 0.000000000000000 6.283185307179586
0

0101000
+172 0 -172 0 *
Wi

0101100
+171 0 -171 0 -170 4 +170 6 *
Fa
0  0.000000100000000 4 0

0111000
+169 0 *
Wi

0101100
+170 0 *
Fa
0  0.000000100000000 5 0

0111000
+167 17 *
Sh

0101100
+168 0 +166 16 -166 18 *
So

0100000
+165 0 *
Ve
0.000000100000000
193.000000000000000 520.000000000000000 0.000000000000000
0 0

0101101
*
Ed
 0.000000100000000 1 1 0
1  5 0 0.000000000000000 20.000000000000000
3  13 14CN 6 0 0.000000000000000 20.000000000000000
0

0101000
+163 4 -163 6 *
Ed
 0.000000100000000 1 1 0
1  6 0 0.000000000000000 6.283185307179586
2  15 6 7 0.000000000000000 6.283185307179586
2  16 6 8 0.000000000000000 6.283185307179586
2  17 7 9 0.000000000000000 6.283185307179586
2  18 3 15 0.000000000000000 6.283185307179586
0

0101000
+163 0 -163 0 *
Wi

0101100
+162 0 -162 0 -161 4 +161 6 *
Fa
0  0.000000100000000 6 0

0111000
+160 0 *
Wi

0101100
+161 0 *
Fa
0  0.000000100000000 7 0

0111000
+158 17 *
Sh

0101100
+159 0 +157 16 -157 18 *
So

0100000
+156 0 *
Ve
0.000000100000000
103.000000000000000 520.000000000000000 0.000000000000000
0 0

0101101
*
Ed
 0.000000100000000 1 1 0
1  7 0 0.000000000000000 20.000000000000000
3  19 20CN 8 0 0.000000000000000 20.000000000000000
0

0101000
+154 4 -154 6 *
Ed
 0.000000100000000 1 1 0
1  8 0 0.000000000000000 6.283185307179586
2  21 8 7 0.000000000000000 6.283185307179586
2  22 8 8 0.000000000000000 6.283185307179586
2  23 9 9 0.000000000000000 6.283185307179586
2  24 3 15 0.000000000000000 6.283185307179586
0

0101000
+154 0 -154 0 *
Wi

0101100
+153 0 -153 0 -152 4 +152 6 *
Fa
0  0.000000100000000 8 0

0111000
+151 0 *
Wi

0101100
+152 0 *
Fa
0  0.000000100000000 9 0

0111000
+149 17 *
Sh

0101100
+150 0 +148 16 -148 18 *
So

0100000
+147 0 *
Ve
0.000000100000000
460.000000000000000 400.000000000000000 0.000000000000000
0 0

0101101
*
Ed
 0.000000100000000 1 1 0
1  9 0 0.000000000000000 20.000000000000000
3  25 26CN 10 0 0.000000000000000 20.000000000000000
0

0101000
+145 4 -145 6 *
Ed
 0.000000100000000 1 1 0
1  10 0 0.000000000000000 6.283185307179586
2  27 10 7 0.000000000000000 6.283185307179586
2  28 10 8 0.000000000000000 6.283185307179586
2  29 11 9 0.000000000000000 6.283185307179586
2  30 3 15 0.000000000000000 6.283185307179586
0

0101000
+145 0 -145 0 *
Wi

0101100
+144 0 -144 0 -143 4 +143 6 *
Fa
0  0.000000100000000 10 0

0111000
+142 0 *
Wi

0101100
+143 0 *
Fa
0  0.000000100000000 11 0

0111000
+140 17 *
Sh

0101100
+141 0 +139 16 -139 18 *
So

0100000
+138 0 *
Ve
0.000000100000000
370.000000000000000 400.000000000000000 0.000000000000000
0 0

0101101
*
Ed
 0.000000100000000 1 1 0
1  11 0 0.000000000000000 20.000000000000000
3  31 32CN 12 0 0.000000000000000 20.000000000000000
0

0101000
+136 4 -136 6 *
Ed
 0.000000100000000 1 1 0
1  12 0 0.000000000000000 6.283185307179586
2  33 12 7 0.000000000000000 6.283185307179586
2  34 12 8 0.000000000000000 6.283185307179586
2  35 13 9 0.000000000000000 6.283185307179586
2  36 3 15 0.000000000000000 6.283185307179586
0

0101000
+136 0 -136 0 *
Wi

0101100
+135 0 -135 0 -134 4 +134 6 *
Fa
0  0.000000100000000 12 0

0111000
+133 0 *
Wi

0101100
+134 0 *
Fa
0  0.000000100000000 13 0

0111000
+131 17 *
Sh

0101100
+132 0 +130 16 -130 18 *
So

0100000
+129 0 *
Ve
0.000000100000000
193.000000000000000 400.000000000000000 0.000000000000000
0 0

0101101
*
Ed
 0.000000100000000 1 1 0
1  13 0 0.000000000000000 20.000000000000000
3  37 38CN 14 0 0.000000000000000 20.000000000000000
0

0101000
+127 4 -127 6 *
Ed
 0.000000100000000 1 1 0
1  14 0 0.000000000000000 6.283185307179586
2  39 14 7 0.000000000000000 6.283185307179586
2  40 14 8 0.000000000000000 6.283185307179586
2  41 15 9 0.000000000000000 6.283185307179586
2  42 3 15 0.000000000000000 6.283185307179586
0

0101000
+127 0 -127 0 *
Wi

0101100
+126 0 -126 0 -125 4 +125 6 *
Fa
0  0.000000100000000 14 0

0111000
+124 0 *
Wi

0101100
+125 0 *
Fa
0  0.000000100000000 15 0

0111000
+122 17 *
Sh

0101100
+123 0 +121 16 -121 18 *
So

0100000
+120 0 *
Ve
0.000000100000000
103.000000000000000 400.000000000000000 0.000000000000000
0 0

0101101
*
Ed
 0.000000100000000 1 1 0
1  15 0 0.000000000000000 20.000000000000000
3  43 44CN 16 0 0.000000000000000 20.000000000000000
0

0101000
+118 4 -118 6 *
Ed
 0.000000100000000 1 1 0
1  16 0 0.000000000000000 6.283185307179586
2  45 16 7 0.000000000000000 6.283185307179586
2  46 16 8 0.000000000000000 6.283185307179586
2  47 17 9 0.000000000000000 6.283185307179586
2  48 3 15 0.000000000000000 6.283185307179586
0

0101000
+118 0 -118 0 *
Wi

0101100
+117 0 -117 0 -116 4 +116 6 *
Fa
0  0.000000100000000 16 0

0111000
+115 0 *
Wi

0101100
+116 0 *
Fa
0  0.000000100000000 17 0

0111000
+113 17 *
Sh

0101100
+114 0 +112 16 -112 18 *
So

0100000
+111 0 *
Ve
0.000000100000000
460.000000000000000 280.000000000000000 0.000000000000000
0 0

0101101
*
Ed
 0.000000100000000 1 1 0
1  17 0 0.000000000000000 20.000000000000000
3  49 50CN 18 0 0.000000000000000 20.000000000000000
0

0101000
+109 4 -109 6 *
Ed
 0.000000100000000 1 1 0
1  18 0 0.000000000000000 6.283185307179586
2  51 18 7 0.000000000000000 6.283185307179586
2  52 18 8 0.000000000000000 6.283185307179586
2  53 19 9 0.000000000000000 6.283185307179586
2  54 3 15 0.000000000000000 6.283185307179586
0

0101000
+109 0 -109 0 *
Wi

0101100
+108 0 -108 0 -107 4 +107 6 *
Fa
0  0.000000100000000 18 0

0111000
+106 0 *
Wi

0101100
+107 0 *
Fa
0  0.000000100000000 19 0

0111000
+104 17 *
Sh

0101100
+105 0 +103 16 -103 18 *
So

0100000
+102 0 *
Ve
0.000000100000000
370.000000000000000 280.000000000000000 0.000000000000000
0 0

0101101
*
Ed
 0.000000100000000 1 1 0
1  19 0 0.000000000000000 20.000000000000000
3  55 56CN 20 0 0.000000000000000 20.000000000000000
0

0101000
+100 4 -100 6 *
Ed
 0.000000100000000 1 1 0
1  20 0 0.000000000000000 6.283185307179586
2  57 20 7 0.000000000000000 6.283185307179586
2  58 20 8 0.000000000000000 6.283185307179586
2  59 21 9 0.000000000000000 6.283185307179586
2  60 3 15 0.000000000000000 6.283185307179586
0

0101000
+100 0 -100 0 *
Wi

0101100
+99 0 -99 0 -98 4 +98 6 *
Fa
0  0.000000100000000 20 0

0111000
+97 0 *
Wi

0101100
+98 0 *
Fa
0  0.000000100000000 21 0

0111000
+95 17 *
Sh

0101100
+96 0 +94 16 -94 18 *
So

0100000
+93 0 *
Ve
0.000000100000000
193.000000000000000 280.000000000000000 0.000000000000000
0 0

0101101
*
Ed
 0.000000100000000 1 1 0
1  21 0 0.000000000000000 20.000000000000000
3  61 62CN 22 0 0.000000000000000 20.000000000000000
0

0101000
+91 4 -91 6 *
Ed
 0.000000100000000 1 1 0
1  22 0 0.000000000000000 6.283185307179586
2  63 22 7 0.000000000000000 6.283185307179586
2  64 22 8 0.000000000000000 6.283185307179586
2  65 23 9 0.000000000000000 6.283185307179586
2  66 3 15 0.000000000000000 6.283185307179586
0

0101000
+91 0 -91 0 *
Wi

0101100
+90 0 -90 0 -89 4 +89 6 *
Fa
0  0.000000100000000 22 0

0111000
+88 0 *
Wi

0101100
+89 0 *
Fa
0  0.000000100000000 23 0

0111000
+86 17 *
Sh

0101100
+87 0 +85 16 -85 18 *
So

0100000
+84 0 *
Ve
0.000000100000000
103.000000000000000 280.000000000000000 0.000000000000000
0 0

0101101
*
Ed
 0.000000100000000 1 1 0
1  23 0 0.000000000000000 20.000000000000000
3  67 68CN 24 0 0.000000000000000 20.000000000000000
0

0101000
+82 4 -82 6 *
Ed
 0.000000100000000 1 1 0
1  24 0 0.000000000000000 6.283185307179586
2  69 24 7 0.000000000000000 6.283185307179586
2  70 24 8 0.000000000000000 6.283185307179586
2  71 25 9 0.000000000000000 6.283185307179586
2  72 3 15 0.000000000000000 6.283185307179586
0

0101000
+82 0 -82 0 *
Wi

0101100
+81 0 -81 0 -80 4 +80 6 *
Fa
0  0.000000100000000 24 0

0111000
+79 0 *
Wi

0101100
+80 0 *
Fa
0  0.000000100000000 25 0

0111000
+77 17 *
Sh

0101100
+78 0 +76 16 -76 18 *
So

0100000
+75 0 *
Ve
0.000000100000000
460.000000000000000 160.000000000000000 0.000000000000000
0 0

0101101
*
Ed
 0.000000100000000 1 1 0
1  25 0 0.000000000000000 20.000000000000000
3  73 74CN 26 0 0.000000000000000 20.000000000000000
0

0101000
+73 4 -73 6 *
Ed
 0.000000100000000 1 1 0
1  26 0 0.000000000000000 6.283185307179586
2  75 26 7 0.000000000000000 6.283185307179586
2  76 26 8 0.000000000000000 6.283185307179586
2  77 27 9 0.000000000000000 6.283185307179586
2  78 3 15 0.000000000000000 6.283185307179586
0

0101000
+73 0 -73 0 *
Wi

0101100
+72 0 -72 0 -71 4 +71 6 *
Fa
0  0.000000100000000 26 0

0111000
+70 0 *
Wi

0101100
+71 0 *
Fa
0  0.000000100000000 27 0

0111000
+68 17 *
Sh

0101100
+69 0 +67 16 -67 18 *
So

0100000
+66 0 *
Ve
0.000000100000000
370.000000000000000 160.000000000000000 0.000000000000000
0 0

0101101
*
Ed
 0.000000100000000 1 1 0
1  27 0 0.000000000000000 20.000000000000000
3  79 80CN 28 0 0.000000000000000 20.000000000000000
0

0101000
+64 4 -64 6 *
Ed
 0.000000100000000 1 1 0
1  28 0 0.000000000000000 6.283185307179586
2  81 28 7 0.000000000000000 6.283185307179586
2  82 28 8 0.000000000000000 6.283185307179586
2  83 29 9 0.000000000000000 6.283185307179586
2  84 3 15 0.000000000000000 6.283185307179586
0

0101000
+64 0 -64 0 *
Wi

0101100
+63 0 -63 0 -62 4 +62 6 *
Fa
0  0.000000100000000 28 0

0111000
+61 0 *
Wi

0101100
+62 0 *
Fa
0  0.000000100000000 29 0

0111000
+59 17 *
Sh

0101100
+60 0 +58 16 -58 18 *
So

0100000
+57 0 *
Ve
0.000000100000000
193.000000000000000 160.000000000000000 0.000000000000000
0 0

0101101
*
Ed
 0.000000100000000 1 1 0
1  29 0 0.000000000000000 20.000000000000000
3  85 86CN 30 0 0.000000000000000 20.000000000000000
0

0101000
+55 4 -55 6 *
Ed
 0.000000100000000 1 1 0
1  30 0 0.000000000000000 6.283185307179586
2  87 30 7 0.000000000000000 6.283185307179586
2  88 30 8 0.000000000000000 6.283185307179586
2  89 31 9 0.000000000000000 6.283185307179586
2  90 3 15 0.000000000000000 6.283185307179586
0

0101000
+55 0 -55 0 *
Wi

0101100
+54 0 -54 0 -53 4 +53 6 *
Fa
0  0.000000100000000 30 0

0111000
+52 0 *
Wi

0101100
+53 0 *
Fa
0  0.000000100000000 31 0

0111000
+50 17 *
Sh

0101100
+51 0 +49 16 -49 18 *
So

0100000
+48 0 *
Ve
0.000000100000000
103.000000000000000 160.000000000000000 0.000000000000000
0 0

0101101
*
Ed
 0.000000100000000 1 1 0
1  31 0 0.000000000000000 20.000000000000000
3  91 92CN 32 0 0.000000000000000 20.000000000000000
0

0101000
+46 4 -46 6 *
Ed
 0.000000100000000 1 1 0
1  32 0 0.000000000000000 6.283185307179586
2  93 32 7 0.000000000000000 6.283185307179586
2  94 32 8 0.000000000000000 6.283185307179586
2  95 33 9 0.000000000000000 6.283185307179586
2  96 3 15 0.000000000000000 6.283185307179586
0

0101000
+46 0 -46 0 *
Wi

0101100
+45 0 -45 0 -44 4 +44 6 *
Fa
0  0.000000100000000 32 0

0111000
+43 0 *
Wi

0101100
+44 0 *
Fa
0  0.000000100000000 33 0

0111000
+41 17 *
Sh

0101100
+42 0 +40 16 -40 18 *
So

0100000
+39 0 *
Ve
0.000000100000000
460.000000000000000 40.000000000000000 0.000000000000000
0 0

0101101
*
Ed
 0.000000100000000 1 1 0
1  33 0 0.000000000000000 20.000000000000000
3  97 98CN 34 0 0.000000000000000 20.000000000000000
0

0101000
+37 4 -37 6 *
Ed
 0.000000100000000 1 1 0
1  34 0 0.000000000000000 6.283185307179586
2  99 34 7 0.000000000000000 6.283185307179586
2  100 34 8 0.000000000000000 6.283185307179586
2  101 35 9 0.000000000000000 6.283185307179586
2  102 3 15 0.000000000000000 6.283185307179586
0

0101000
+37 0 -37 0 *
Wi

0101100
+36 0 -36 0 -35 4 +35 6 *
Fa
0  0.000000100000000 34 0

0111000
+34 0 *
Wi

0101100
+35 0 *
Fa
0  0.000000100000000 35 0

0111000
+32 17 *
Sh

0101100
+33 0 +31 16 -31 18 *
So

0100000
+30 0 *
Ve
0.000000100000000
370.000000000000000 40.000000000000000 0.000000000000000
0 0

0101101
*
Ed
 0.000000100000000 1 1 0
1  35 0 0.000000000000000 20.000000000000000
3  103 104CN 36 0 0.000000000000000 20.000000000000000
0

0101000
+28 4 -28 6 *
Ed
 0.000000100000000 1 1 0
1  36 0 0.000000000000000 6.283185307179586
2  105 36 7 0.000000000000000 6.283185307179586
2  106 36 8 0.000000000000000 6.283185307179586
2  107 37 9 0.000000000000000 6.283185307179586
2  108 3 15 0.000000000000000 6.283185307179586
0

0101000
+28 0 -28 0 *
Wi

0101100
+27 0 -27 0 -26 4 +26 6 *
Fa
0  0.000000100000000 36 0

0111000
+25 0 *
Wi

0101100
+26 0 *
Fa
0  0.000000100000000 37 0

0111000
+23 17 *
Sh

0101100
+24 0 +22 16 -22 18 *
So

0100000
+21 0 *
Ve
0.000000100000000
193.000000000000000 40.000000000000000 0.000000000000000
0 0

0101101
*
Ed
 0.000000100000000 1 1 0
1  37 0 0.000000000000000 20.000000000000000
3  109 110CN 38 0 0.000000000000000 20.000000000000000
0

0101000
+19 4 -19 6 *
Ed
 0.000000100000000 1 1 0
1  38 0 0.000000000000000 6.283185307179586
2  111 38 7 0.000000000000000 6.283185307179586
2  112 38 8 0.000000000000000 6.283185307179586
2  113 39 9 0.000000000000000 6.283185307179586
2  114 3 15 0.000000000000000 6.283185307179586
0

0101000
+19 0 -19 0 *
Wi

0101100
+18 0 -18 0 -17 4 +17 6 *
Fa
0  0.000000100000000 38 0

0111000
+16 0 *
Wi

0101100
+17 0 *
Fa
0  0.000000100000000 39 0

0111000
+14 17 *
Sh

0101100
+15 0 +13 16 -13 18 *
So

0100000
+12 0 *
Ve
0.000000100000000
103.000000000000000 40.000000000000000 0.000000000000000
0 0

0101101
*
Ed
 0.000000100000000 1 1 0
1  39 0 0.000000000000000 20.000000000000000
3  115 116CN 40 0 0.000000000000000 20.000000000000000
0

0101000
+10 4 -10 6 *
Ed
 0.000000100000000 1 1 0
1  40 0 0.000000000000000 6.283185307179586
2  117 40 7 0.000000000000000 6.283185307179586
2  118 40 8 0.000000000000000 6.283185307179586
2  119 41 9 0.000000000000000 6.283185307179586
2  120 3 15 0.000000000000000 6.283185307179586
0

0101000
+10 0 -10 0 *
Wi

0101100
+9 0 -9 0 -8 4 +8 6 *
Fa
0  0.000000100000000 40 0

0111000
+7 0 *
Wi

0101100
+8 0 *
Fa
0  0.000000100000000 41 0

0111000
+5 17 *
Sh

0101100
+6 0 +4 16 -4 18 *
So

0100000
+3 0 *
Co

0100000
+173 0 +164 0 +155 0 +146 0 +137 0 +128 0 +119 0 +110 0 +101 0 +92 0 
+83 0 +74 0 +65 0 +56 0 +47 0 +38 0 +29 0 +20 0 +11 0 +2 0 
*

+1 0 