
CASCADE Topology V1, (c) Matra-Datavision
Locations 18
1
1.000000000000000 0.000000000000000 0.000000000000000 0.000000000000000 
0.000000000000000 1.000000000000000 0.000000000000000 0.000000000000000 
0.000000000000000 0.000000000000000 1.000000000000000 0.000000000000000 
1
1.000000000000000 0.000000000000000 0.000000000000000 0.000000000000000 
0.000000000000000 1.000000000000000 0.000000000000000 0.000000000000000 
0.000000000000000 0.000000000000000 1.000000000000000 28.000000000000000 
1
1.000000000000000 0.000000000000000 0.000000000000000 0.000000000000000 
0.000000000000000 1.000000000000000 0.000000000000000 0.000000000000000 
0.000000000000000 0.000000000000000 1.000000000000000 0.000000000000000 
2  1 1 2 1 3 -1 0
1
1.000000000000000 0.000000000000000 0.000000000000000 -0.000000000000000 
0.000000000000000 1.000000000000000 0.000000000000000 -0.000000000000000 
0.000000000000000 0.000000000000000 1.000000000000000 -5.000000000000000 
2  1 1 2 1 3 -1 5 1 0
2  3 1 2 -1 1 -1 0
2  5 -1 3 1 2 -1 1 -1 0
2  2 -1 1 -1 0
1
1.000000000000000 0.000000000000000 0.000000000000000 0.000000000000000 
0.000000000000000 1.000000000000000 0.000000000000000 0.000000000000000 
0.000000000000000 0.000000000000000 1.000000000000000 0.000000000000000 
2  10 1 3 -1 5 -1 3 1 2 -1 1 -1 0
2  10 1 3 -1 0
1
1.000000000000000 0.000000000000000 0.000000000000000 0.000000000000000 
0.000000000000000 1.000000000000000 0.000000000000000 0.000000000000000 
0.000000000000000 0.000000000000000 1.000000000000000 0.000000000000000 
1
1.000000000000000 0.000000000000000 0.000000000000000 0.000000000000000 
0.000000000000000 1.000000000000000 0.000000000000000 0.000000000000000 
0.000000000000000 0.000000000000000 1.000000000000000 28.000000000000000 
2  13 -1 14 1 10 1 2 -1 1 -1 0
2  3 -1 0
2  1 1 2 1 0
2  3 -1 5 1 0
Curve2ds 124
1 0.00000000000000000 0.00000000000000000 0.00000000000000000 -1.00000000000000000 
1 20.00000000000000000 0.00000000000000000 0.00000000000000000 -1.00000000000000000 
1 557.00000000000000000 0.00000000000000000 0.00000000000000000 -1.00000000000000000 
1 0.00000000000000000 0.00000000000000000 0.00000000000000000 -1.00000000000000000 
1 0.00000000000000000 0.00000000000000000 1.00000000000000000 0.00000000000000000 
1 0.00000000000000000 -5.00000000000000000 1.00000000000000000 0.00000000000000000 
1 278.50000000000000000 385.00000000000000000 -1.00000000000000000 0.00000000000000000 
1 557.00000000000000000 -23.00000000000000000 -1.00000000000000000 -0.00000000000000000 
1 20.00000000000000000 0.00000000000000000 0.00000000000000000 -1.00000000000000000 
1 0.00000000000000000 0.00000000000000000 0.00000000000000000 -1.00000000000000000 
1 750.00000000000000000 -28.00000000000000000 0.00000000000000000 1.00000000000000000 
1 0.00000000000000000 0.00000000000000000 1.00000000000000000 0.00000000000000000 
1 0.00000000000000000 -5.00000000000000000 1.00000000000000000 0.00000000000000000 
1 -278.50000000000000000 385.00000000000000000 0.00000000000000000 -1.00000000000000000 
1 770.00000000000000000 -23.00000000000000000 -1.00000000000000000 0.00000000000000000 
1 20.00000000000000000 0.00000000000000000 0.00000000000000000 -1.00000000000000000 
1 0.00000000000000000 0.00000000000000000 0.00000000000000000 -1.00000000000000000 
1 -278.50000000000000000 365.00000000000000000 1.00000000000000000 0.00000000000000000 
1 0.00000000000000000 0.00000000000000000 1.00000000000000000 0.00000000000000000 
1 0.00000000000000000 -5.00000000000000000 1.00000000000000000 0.00000000000000000 
1 278.50000000000000000 365.00000000000000000 -1.00000000000000000 0.00000000000000000 
1 0.00000000000000000 0.00000000000000000 0.00000000000000000 -1.00000000000000000 
1 730.00000000000000000 0.00000000000000000 0.00000000000000000 -1.00000000000000000 
1 -258.50000000000000000 365.00000000000000000 0.00000000000000000 -1.00000000000000000 
1 0.00000000000000000 0.00000000000000000 1.00000000000000000 0.00000000000000000 
1 0.00000000000000000 -5.00000000000000000 1.00000000000000000 0.00000000000000000 
1 258.50000000000000000 365.00000000000000000 0.00000000000000000 -1.00000000000000000 
1 0.00000000000000000 0.00000000000000000 0.00000000000000000 -1.00000000000000000 
1 20.00000000000000000 0.00000000000000000 0.00000000000000000 -1.00000000000000000 
1 20.00000000000000000 -28.00000000000000000 0.00000000000000000 1.00000000000000000 
1 -258.50000000000000000 -365.00000000000000000 -1.00000000000000000 0.00000000000000000 
1 0.00000000000000000 0.00000000000000000 1.00000000000000000 0.00000000000000000 
1 0.00000000000000000 -5.00000000000000000 1.00000000000000000 0.00000000000000000 
1 258.50000000000000000 -365.00000000000000000 1.00000000000000000 0.00000000000000000 
1 0.00000000000000000 0.00000000000000000 0.00000000000000000 -1.00000000000000000 
1 20.00000000000000000 0.00000000000000000 0.00000000000000000 -1.00000000000000000 
1 0.00000000000000000 0.00000000000000000 1.00000000000000000 0.00000000000000000 
1 0.00000000000000000 -5.00000000000000000 1.00000000000000000 0.00000000000000000 
1 -278.50000000000000000 -365.00000000000000000 0.00000000000000000 -1.00000000000000000 
1 20.00000000000000000 -23.00000000000000000 -1.00000000000000000 0.00000000000000000 
1 557.00000000000000000 0.00000000000000000 0.00000000000000000 -1.00000000000000000 
1 0.00000000000000000 0.00000000000000000 0.00000000000000000 -1.00000000000000000 
1 0.00000000000000000 0.00000000000000000 1.00000000000000000 0.00000000000000000 
1 -0.00000000000000000 -5.00000000000000000 1.00000000000000000 0.00000000000000000 
1 -278.50000000000000000 -385.00000000000000000 1.00000000000000000 -0.00000000000000000 
1 557.00000000000000000 -23.00000000000000000 -1.00000000000000000 0.00000000000000000 
1 20.00000000000000000 0.00000000000000000 0.00000000000000000 -1.00000000000000000 
1 0.00000000000000000 0.00000000000000000 0.00000000000000000 -1.00000000000000000 
1 750.00000000000000000 -28.00000000000000000 0.00000000000000000 1.00000000000000000 
1 0.00000000000000000 0.00000000000000000 1.00000000000000000 0.00000000000000000 
1 0.00000000000000000 -5.00000000000000000 1.00000000000000000 0.00000000000000000 
1 278.50000000000000000 -385.00000000000000000 0.00000000000000000 1.00000000000000000 
1 770.00000000000000000 -23.00000000000000000 -1.00000000000000000 0.00000000000000000 
1 20.00000000000000000 0.00000000000000000 0.00000000000000000 -1.00000000000000000 
1 0.00000000000000000 0.00000000000000000 0.00000000000000000 -1.00000000000000000 
1 278.50000000000000000 -365.00000000000000000 -1.00000000000000000 0.00000000000000000 
1 0.00000000000000000 0.00000000000000000 1.00000000000000000 0.00000000000000000 
1 0.00000000000000000 -5.00000000000000000 1.00000000000000000 0.00000000000000000 
1 -278.50000000000000000 -365.00000000000000000 1.00000000000000000 0.00000000000000000 
1 0.00000000000000000 0.00000000000000000 0.00000000000000000 -1.00000000000000000 
1 730.00000000000000000 0.00000000000000000 0.00000000000000000 -1.00000000000000000 
1 258.50000000000000000 -365.00000000000000000 0.00000000000000000 1.00000000000000000 
1 0.00000000000000000 0.00000000000000000 1.00000000000000000 0.00000000000000000 
1 0.00000000000000000 -5.00000000000000000 1.00000000000000000 0.00000000000000000 
1 -258.50000000000000000 -365.00000000000000000 0.00000000000000000 1.00000000000000000 
1 0.00000000000000000 0.00000000000000000 0.00000000000000000 -1.00000000000000000 
1 20.00000000000000000 0.00000000000000000 0.00000000000000000 -1.00000000000000000 
1 20.00000000000000000 -28.00000000000000000 0.00000000000000000 1.00000000000000000 
1 258.50000000000000000 365.00000000000000000 1.00000000000000000 0.00000000000000000 
1 0.00000000000000000 0.00000000000000000 1.00000000000000000 0.00000000000000000 
1 0.00000000000000000 -5.00000000000000000 1.00000000000000000 0.00000000000000000 
1 -258.50000000000000000 365.00000000000000000 -1.00000000000000000 0.00000000000000000 
1 0.00000000000000000 0.00000000000000000 1.00000000000000000 0.00000000000000000 
1 0.00000000000000000 -5.00000000000000000 1.00000000000000000 0.00000000000000000 
1 278.50000000000000000 365.00000000000000000 0.00000000000000000 1.00000000000000000 
1 20.00000000000000000 -23.00000000000000000 -1.00000000000000000 0.00000000000000000 
1 0.00000000000000000 0.00000000000000000 0.00000000000000000 -1.00000000000000000 
1 220.00000000000000000 0.00000000000000000 0.00000000000000000 -1.00000000000000000 
1 730.00000000000000000 0.00000000000000000 0.00000000000000000 -1.00000000000000000 
1 0.00000000000000000 0.00000000000000000 0.00000000000000000 -1.00000000000000000 
1 228.50000000000000000 -365.00000000000000000 0.00000000000000000 1.00000000000000000 
1 0.00000000000000000 0.00000000000000000 1.00000000000000000 0.00000000000000000 
1 0.00000000000000000 -5.00000000000000000 1.00000000000000000 0.00000000000000000 
1 -228.50000000000000000 -365.00000000000000000 0.00000000000000000 1.00000000000000000 
1 0.00000000000000000 0.00000000000000000 0.00000000000000000 -1.00000000000000000 
1 730.00000000000000000 0.00000000000000000 0.00000000000000000 -1.00000000000000000 
1 8.50000000000000000 -365.00000000000000000 1.00000000000000000 0.00000000000000000 
1 0.00000000000000000 0.00000000000000000 1.00000000000000000 0.00000000000000000 
1 0.00000000000000000 -5.00000000000000000 1.00000000000000000 0.00000000000000000 
1 -8.50000000000000000 -365.00000000000000000 -1.00000000000000000 0.00000000000000000 
1 0.00000000000000000 0.00000000000000000 0.00000000000000000 -1.00000000000000000 
1 220.00000000000000000 0.00000000000000000 0.00000000000000000 -1.00000000000000000 
1 8.50000000000000000 365.00000000000000000 0.00000000000000000 -1.00000000000000000 
1 0.00000000000000000 0.00000000000000000 1.00000000000000000 0.00000000000000000 
1 0.00000000000000000 -5.00000000000000000 1.00000000000000000 0.00000000000000000 
1 -8.50000000000000000 365.00000000000000000 0.00000000000000000 -1.00000000000000000 
1 228.50000000000000000 365.00000000000000000 -1.00000000000000000 0.00000000000000000 
1 0.00000000000000000 0.00000000000000000 1.00000000000000000 0.00000000000000000 
1 0.00000000000000000 -5.00000000000000000 1.00000000000000000 0.00000000000000000 
1 -228.50000000000000000 365.00000000000000000 1.00000000000000000 0.00000000000000000 
1 0.00000000000000000 0.00000000000000000 0.00000000000000000 -1.00000000000000000 
1 207.00000000000000000 0.00000000000000000 0.00000000000000000 -1.00000000000000000 
1 730.00000000000000000 0.00000000000000000 0.00000000000000000 -1.00000000000000000 
1 0.00000000000000000 0.00000000000000000 0.00000000000000000 -1.00000000000000000 
1 -21.50000000000000000 -365.00000000000000000 0.00000000000000000 1.00000000000000000 
1 0.00000000000000000 0.00000000000000000 1.00000000000000000 0.00000000000000000 
1 0.00000000000000000 -5.00000000000000000 1.00000000000000000 0.00000000000000000 
1 21.50000000000000000 -365.00000000000000000 0.00000000000000000 1.00000000000000000 
1 0.00000000000000000 0.00000000000000000 0.00000000000000000 -1.00000000000000000 
1 730.00000000000000000 0.00000000000000000 0.00000000000000000 -1.00000000000000000 
1 -228.50000000000000000 -365.00000000000000000 1.00000000000000000 0.00000000000000000 
1 0.00000000000000000 0.00000000000000000 1.00000000000000000 0.00000000000000000 
1 0.00000000000000000 -5.00000000000000000 1.00000000000000000 0.00000000000000000 
1 228.50000000000000000 -365.00000000000000000 -1.00000000000000000 0.00000000000000000 
1 0.00000000000000000 0.00000000000000000 0.00000000000000000 -1.00000000000000000 
1 207.00000000000000000 0.00000000000000000 0.00000000000000000 -1.00000000000000000 
1 -228.50000000000000000 365.00000000000000000 0.00000000000000000 -1.00000000000000000 
1 0.00000000000000000 0.00000000000000000 1.00000000000000000 0.00000000000000000 
1 0.00000000000000000 -5.00000000000000000 1.00000000000000000 0.00000000000000000 
1 228.50000000000000000 365.00000000000000000 0.00000000000000000 -1.00000000000000000 
1 -21.50000000000000000 365.00000000000000000 -1.00000000000000000 0.00000000000000000 
1 0.00000000000000000 0.00000000000000000 1.00000000000000000 0.00000000000000000 
1 0.00000000000000000 -5.00000000000000000 1.00000000000000000 0.00000000000000000 
1 21.50000000000000000 365.00000000000000000 1.00000000000000000 0.00000000000000000 
Curves 40
1 0.00000000000000000 770.00000000000000000 28.00000000000000000 -0.00000000000000000 -0.00000000000000000 -1.00000000000000000 
1 557.00000000000000000 770.00000000000000000 28.00000000000000000 -0.00000000000000000 -0.00000000000000000 -1.00000000000000000 
1 0.00000000000000000 770.00000000000000000 0.00000000000000000 1.00000000000000000 0.00000000000000000 0.00000000000000000 
1 557.00000000000000000 750.00000000000000000 28.00000000000000000 -0.00000000000000000 -0.00000000000000000 -1.00000000000000000 
1 557.00000000000000000 770.00000000000000000 0.00000000000000000 0.00000000000000000 -1.00000000000000000 0.00000000000000000 
1 537.00000000000000000 750.00000000000000000 28.00000000000000000 -0.00000000000000000 -0.00000000000000000 -1.00000000000000000 
1 557.00000000000000000 750.00000000000000000 0.00000000000000000 -1.00000000000000000 0.00000000000000000 0.00000000000000000 
1 537.00000000000000000 20.00000000000000000 28.00000000000000000 -0.00000000000000000 -0.00000000000000000 -1.00000000000000000 
1 537.00000000000000000 750.00000000000000000 0.00000000000000000 0.00000000000000000 -1.00000000000000000 0.00000000000000000 
1 557.00000000000000000 20.00000000000000000 28.00000000000000000 -0.00000000000000000 -0.00000000000000000 -1.00000000000000000 
1 537.00000000000000000 20.00000000000000000 0.00000000000000000 1.00000000000000000 0.00000000000000000 0.00000000000000000 
1 557.00000000000000000 0.00000000000000000 28.00000000000000000 -0.00000000000000000 -0.00000000000000000 -1.00000000000000000 
1 557.00000000000000000 20.00000000000000000 0.00000000000000000 0.00000000000000000 -1.00000000000000000 0.00000000000000000 
1 0.00000000000000000 -0.00000000000000000 28.00000000000000000 -0.00000000000000000 -0.00000000000000000 -1.00000000000000000 
1 557.00000000000000000 0.00000000000000000 0.00000000000000000 -1.00000000000000000 -0.00000000000000000 0.00000000000000000 
1 0.00000000000000000 20.00000000000000000 28.00000000000000000 -0.00000000000000000 -0.00000000000000000 -1.00000000000000000 
1 0.00000000000000000 -0.00000000000000000 0.00000000000000000 0.00000000000000000 1.00000000000000000 0.00000000000000000 
1 20.00000000000000000 20.00000000000000000 28.00000000000000000 -0.00000000000000000 -0.00000000000000000 -1.00000000000000000 
1 0.00000000000000000 20.00000000000000000 0.00000000000000000 1.00000000000000000 0.00000000000000000 0.00000000000000000 
1 20.00000000000000000 750.00000000000000000 28.00000000000000000 -0.00000000000000000 -0.00000000000000000 -1.00000000000000000 
1 20.00000000000000000 20.00000000000000000 0.00000000000000000 0.00000000000000000 1.00000000000000000 0.00000000000000000 
1 0.00000000000000000 750.00000000000000000 28.00000000000000000 -0.00000000000000000 -0.00000000000000000 -1.00000000000000000 
1 20.00000000000000000 750.00000000000000000 0.00000000000000000 -1.00000000000000000 0.00000000000000000 0.00000000000000000 
1 0.00000000000000000 750.00000000000000000 0.00000000000000000 0.00000000000000000 1.00000000000000000 0.00000000000000000 
1 50.00000000000000000 20.00000000000000000 28.00000000000000000 -0.00000000000000000 -0.00000000000000000 -1.00000000000000000 
1 50.00000000000000000 750.00000000000000000 28.00000000000000000 -0.00000000000000000 -0.00000000000000000 -1.00000000000000000 
1 50.00000000000000000 20.00000000000000000 0.00000000000000000 0.00000000000000000 1.00000000000000000 0.00000000000000000 
1 270.00000000000000000 20.00000000000000000 28.00000000000000000 -0.00000000000000000 -0.00000000000000000 -1.00000000000000000 
1 270.00000000000000000 20.00000000000000000 0.00000000000000000 -1.00000000000000000 0.00000000000000000 0.00000000000000000 
1 270.00000000000000000 750.00000000000000000 28.00000000000000000 -0.00000000000000000 -0.00000000000000000 -1.00000000000000000 
1 270.00000000000000000 750.00000000000000000 0.00000000000000000 0.00000000000000000 -1.00000000000000000 0.00000000000000000 
1 50.00000000000000000 750.00000000000000000 0.00000000000000000 1.00000000000000000 0.00000000000000000 0.00000000000000000 
1 300.00000000000000000 20.00000000000000000 28.00000000000000000 -0.00000000000000000 -0.00000000000000000 -1.00000000000000000 
1 300.00000000000000000 750.00000000000000000 28.00000000000000000 -0.00000000000000000 -0.00000000000000000 -1.00000000000000000 
1 300.00000000000000000 20.00000000000000000 0.00000000000000000 0.00000000000000000 1.00000000000000000 0.00000000000000000 
1 507.00000000000000000 20.00000000000000000 28.00000000000000000 -0.00000000000000000 -0.00000000000000000 -1.00000000000000000 
1 507.00000000000000000 20.00000000000000000 0.00000000000000000 -1.00000000000000000 0.00000000000000000 0.00000000000000000 
1 507.00000000000000000 750.00000000000000000 28.00000000000000000 -0.00000000000000000 -0.00000000000000000 -1.00000000000000000 
1 507.00000000000000000 750.00000000000000000 0.00000000000000000 0.00000000000000000 -1.00000000000000000 0.00000000000000000 
1 300.00000000000000000 750.00000000000000000 0.00000000000000000 1.00000000000000000 0.00000000000000000 0.00000000000000000 
Polygon3D 0
PolygonOnTriangulations 0
Surfaces 26
1 0.00000000000000000 770.00000000000000000 28.00000000000000000 0.00000000000000000 -1.00000000000000000 0.00000000000000000 1.00000000000000000 0.00000000000000000 0.00000000000000000 -0.00000000000000000 0.00000000000000000 1.00000000000000000 
1 0.00000000000000000 750.00000000000000000 28.00000000000000000 1.00000000000000000 0.00000000000000000 0.00000000000000000 -0.00000000000000000 1.00000000000000000 0.00000000000000000 0.00000000000000000 -0.00000000000000000 1.00000000000000000 
1 557.00000000000000000 770.00000000000000000 28.00000000000000000 -1.00000000000000000 0.00000000000000000 0.00000000000000000 0.00000000000000000 -1.00000000000000000 0.00000000000000000 0.00000000000000000 0.00000000000000000 1.00000000000000000 
1 278.50000000000000000 385.00000000000000000 28.00000000000000000 -0.00000000000000000 -0.00000000000000000 -1.00000000000000000 -1.00000000000000000 0.00000000000000000 0.00000000000000000 0.00000000000000000 1.00000000000000000 -0.00000000000000000 
1 557.00000000000000000 770.00000000000000000 0.00000000000000000 0.00000000000000000 -1.00000000000000000 0.00000000000000000 -1.00000000000000000 0.00000000000000000 0.00000000000000000 -0.00000000000000000 -0.00000000000000000 -1.00000000000000000 
1 557.00000000000000000 750.00000000000000000 28.00000000000000000 0.00000000000000000 1.00000000000000000 -0.00000000000000000 -1.00000000000000000 0.00000000000000000 0.00000000000000000 0.00000000000000000 0.00000000000000000 1.00000000000000000 
1 557.00000000000000000 0.00000000000000000 0.00000000000000000 -1.00000000000000000 0.00000000000000000 0.00000000000000000 0.00000000000000000 1.00000000000000000 0.00000000000000000 0.00000000000000000 0.00000000000000000 -1.00000000000000000 
1 537.00000000000000000 750.00000000000000000 28.00000000000000000 -1.00000000000000000 0.00000000000000000 0.00000000000000000 0.00000000000000000 -1.00000000000000000 0.00000000000000000 0.00000000000000000 0.00000000000000000 1.00000000000000000 
1 278.50000000000000000 385.00000000000000000 0.00000000000000000 0.00000000000000000 0.00000000000000000 1.00000000000000000 1.00000000000000000 0.00000000000000000 -0.00000000000000000 -0.00000000000000000 1.00000000000000000 0.00000000000000000 
1 537.00000000000000000 20.00000000000000000 28.00000000000000000 0.00000000000000000 -1.00000000000000000 0.00000000000000000 1.00000000000000000 0.00000000000000000 0.00000000000000000 -0.00000000000000000 0.00000000000000000 1.00000000000000000 
1 557.00000000000000000 20.00000000000000000 28.00000000000000000 -1.00000000000000000 0.00000000000000000 0.00000000000000000 0.00000000000000000 -1.00000000000000000 0.00000000000000000 0.00000000000000000 0.00000000000000000 1.00000000000000000 
1 557.00000000000000000 0.00000000000000000 28.00000000000000000 -0.00000000000000000 1.00000000000000000 0.00000000000000000 -1.00000000000000000 -0.00000000000000000 0.00000000000000000 0.00000000000000000 0.00000000000000000 1.00000000000000000 
1 0.00000000000000000 -0.00000000000000000 28.00000000000000000 1.00000000000000000 0.00000000000000000 0.00000000000000000 -0.00000000000000000 1.00000000000000000 0.00000000000000000 0.00000000000000000 -0.00000000000000000 1.00000000000000000 
1 0.00000000000000000 0.00000000000000000 0.00000000000000000 0.00000000000000000 1.00000000000000000 0.00000000000000000 1.00000000000000000 0.00000000000000000 0.00000000000000000 0.00000000000000000 0.00000000000000000 -1.00000000000000000 
1 0.00000000000000000 20.00000000000000000 28.00000000000000000 0.00000000000000000 -1.00000000000000000 0.00000000000000000 1.00000000000000000 0.00000000000000000 0.00000000000000000 -0.00000000000000000 0.00000000000000000 1.00000000000000000 
1 0.00000000000000000 770.00000000000000000 0.00000000000000000 1.00000000000000000 0.00000000000000000 -0.00000000000000000 0.00000000000000000 -1.00000000000000000 0.00000000000000000 0.00000000000000000 -0.00000000000000000 -1.00000000000000000 
1 20.00000000000000000 20.00000000000000000 28.00000000000000000 1.00000000000000000 0.00000000000000000 0.00000000000000000 -0.00000000000000000 1.00000000000000000 0.00000000000000000 0.00000000000000000 -0.00000000000000000 1.00000000000000000 
1 20.00000000000000000 750.00000000000000000 28.00000000000000000 0.00000000000000000 1.00000000000000000 -0.00000000000000000 -1.00000000000000000 0.00000000000000000 0.00000000000000000 0.00000000000000000 0.00000000000000000 1.00000000000000000 
1 50.00000000000000000 20.00000000000000000 28.00000000000000000 1.00000000000000000 0.00000000000000000 0.00000000000000000 -0.00000000000000000 1.00000000000000000 0.00000000000000000 0.00000000000000000 -0.00000000000000000 1.00000000000000000 
1 270.00000000000000000 20.00000000000000000 28.00000000000000000 0.00000000000000000 1.00000000000000000 -0.00000000000000000 -1.00000000000000000 0.00000000000000000 0.00000000000000000 0.00000000000000000 0.00000000000000000 1.00000000000000000 
1 50.00000000000000000 750.00000000000000000 28.00000000000000000 0.00000000000000000 -1.00000000000000000 0.00000000000000000 1.00000000000000000 0.00000000000000000 0.00000000000000000 -0.00000000000000000 0.00000000000000000 1.00000000000000000 
1 270.00000000000000000 750.00000000000000000 28.00000000000000000 -1.00000000000000000 0.00000000000000000 0.00000000000000000 0.00000000000000000 -1.00000000000000000 0.00000000000000000 0.00000000000000000 0.00000000000000000 1.00000000000000000 
1 300.00000000000000000 20.00000000000000000 28.00000000000000000 1.00000000000000000 0.00000000000000000 0.00000000000000000 -0.00000000000000000 1.00000000000000000 0.00000000000000000 0.00000000000000000 -0.00000000000000000 1.00000000000000000 
1 507.00000000000000000 20.00000000000000000 28.00000000000000000 0.00000000000000000 1.00000000000000000 -0.00000000000000000 -1.00000000000000000 0.00000000000000000 0.00000000000000000 0.00000000000000000 0.00000000000000000 1.00000000000000000 
1 300.00000000000000000 750.00000000000000000 28.00000000000000000 0.00000000000000000 -1.00000000000000000 0.00000000000000000 1.00000000000000000 0.00000000000000000 0.00000000000000000 -0.00000000000000000 0.00000000000000000 1.00000000000000000 
1 507.00000000000000000 750.00000000000000000 28.00000000000000000 -1.00000000000000000 0.00000000000000000 0.00000000000000000 0.00000000000000000 -1.00000000000000000 0.00000000000000000 0.00000000000000000 0.00000000000000000 1.00000000000000000 
Triangulations 0

TShapes 106
Ve
0.000000100000000
0.000000000000000 770.000000000000000 0.000000000000000
0 0

0101101
*
Ed
 0.000000100000000 1 1 0
1  1 0 0.000000000000000 5.000000000000000
2  1 1 0 0.000000000000000 5.000000000000000
2  2 2 0 0.000000000000000 5.000000000000000
0

0101000
+106 4 -106 6 *
Ve
0.000000100000000
557.000000000000000 770.000000000000000 0.000000000000000
0 0

0101101
*
Ed
 0.000000100000000 1 1 0
1  2 0 0.000000000000000 5.000000000000000
2  3 1 0 0.000000000000000 5.000000000000000
2  4 3 0 0.000000000000000 5.000000000000000
0

0101000
+104 4 -104 6 *
Ed
 0.000000100000000 1 1 0
1  3 0 0.000000000000000 557.000000000000000
2  5 1 7 0.000000000000000 557.000000000000000
2  6 1 8 0.000000000000000 557.000000000000000
2  7 4 9 0.000000000000000 557.000000000000000
2  8 5 11 0.000000000000000 557.000000000000000
0

0101000
+106 0 -104 0 *
Wi

0101100
+105 0 -103 0 -102 4 +102 6 *
Fa
0  0.000000100000000 1 0

0111000
+101 0 *
Ve
0.000000100000000
557.000000000000000 750.000000000000000 0.000000000000000
0 0

0101101
*
Ed
 0.000000100000000 1 1 0
1  4 0 0.000000000000000 5.000000000000000
2  9 3 0 0.000000000000000 5.000000000000000
2  10 6 0 0.000000000000000 5.000000000000000
2  11 7 12 0.000000000000000 5.000000000000000
0

0101000
+99 4 -99 6 *
Ed
 0.000000100000000 1 1 0
1  5 0 0.000000000000000 20.000000000000000
2  12 3 7 0.000000000000000 20.000000000000000
2  13 3 8 0.000000000000000 20.000000000000000
2  14 4 9 0.000000000000000 20.000000000000000
2  15 7 11 0.000000000000000 20.000000000000000
0

0101000
+104 0 -99 0 *
Wi

0101100
+103 0 -98 0 -97 4 +97 6 *
Fa
0  0.000000100000000 3 0

0111000
+96 0 *
Ve
0.000000100000000
537.000000000000000 750.000000000000000 0.000000000000000
0 0

0101101
*
Ed
 0.000000100000000 1 1 0
1  6 0 0.000000000000000 5.000000000000000
2  16 6 0 0.000000000000000 5.000000000000000
2  17 8 0 0.000000000000000 5.000000000000000
0

0101000
+94 4 -94 6 *
Ed
 0.000000100000000 1 1 0
1  7 0 0.000000000000000 20.000000000000000
2  18 4 9 0.000000000000000 20.000000000000000
2  19 6 7 0.000000000000000 20.000000000000000
2  20 6 8 0.000000000000000 20.000000000000000
2  21 9 15 0.000000000000000 20.000000000000000
0

0101000
+99 0 -94 0 *
Wi

0101100
+98 0 -93 0 -92 4 +92 6 *
Fa
0  0.000000100000000 6 0

0111000
+91 0 *
Ve
0.000000100000000
537.000000000000000 20.000000000000000 0.000000000000000
0 0

0101101
*
Ed
 0.000000100000000 1 1 0
1  8 0 0.000000000000000 5.000000000000000
2  22 10 0 0.000000000000000 5.000000000000000
2  23 8 0 0.000000000000000 5.000000000000000
0

0101000
+89 4 -89 6 *
Ed
 0.000000100000000 1 1 0
1  9 0 0.000000000000000 730.000000000000000
2  24 4 9 0.000000000000000 730.000000000000000
2  25 8 7 0.000000000000000 730.000000000000000
2  26 8 8 0.000000000000000 730.000000000000000
2  27 9 15 0.000000000000000 730.000000000000000
0

0101000
+94 0 -89 0 *
Wi

0101100
+93 0 -88 0 -87 4 +87 6 *
Fa
0  0.000000100000000 8 0

0111000
+86 0 *
Ve
0.000000100000001
557.000000000000000 20.000000000000000 0.000000000000000
0 0

0101101
*
Ed
 0.000000100000000 1 1 0
1  10 0 0.000000000000000 5.000000000000000
2  28 11 0 0.000000000000000 5.000000000000000
2  29 10 0 0.000000000000000 5.000000000000000
2  30 7 12 0.000000000000000 5.000000000000000
0

0101000
+84 4 -84 6 *
Ed
 0.000000100000000 1 1 0
1  11 0 0.000000000000000 20.000000000000000
2  31 4 9 0.000000000000000 20.000000000000000
2  32 10 7 0.000000000000000 20.000000000000000
2  33 10 8 0.000000000000000 20.000000000000000
2  34 9 15 0.000000000000000 20.000000000000000
0

0101000
+89 0 -84 0 *
Wi

0101100
+88 0 -83 0 -82 4 +82 6 *
Fa
0  0.000000100000000 10 0

0111000
+81 0 *
Ve
0.000000100000000
557.000000000000000 0.000000000000000 0.000000000000000
0 0

0101101
*
Ed
 0.000000100000000 1 1 0
1  12 0 0.000000000000000 5.000000000000000
2  35 12 0 0.000000000000000 5.000000000000000
2  36 11 0 0.000000000000000 5.000000000000000
0

0101000
+79 4 -79 6 *
Ed
 0.000000100000000 1 1 0
1  13 0 0.000000000000000 20.000000000000000
2  37 11 7 0.000000000000000 20.000000000000000
2  38 11 8 0.000000000000000 20.000000000000000
2  39 4 9 0.000000000000000 20.000000000000000
2  40 7 11 0.000000000000000 20.000000000000000
0

0101000
+84 0 -79 0 *
Wi

0101100
+83 0 -78 0 -77 4 +77 6 *
Fa
0  0.000000100000000 11 0

0111000
+76 0 *
Ve
0.000000100000000
0.000000000000000 -0.000000000000000 0.000000000000000
0 0

0101101
*
Ed
 0.000000100000000 1 1 0
1  14 0 0.000000000000000 5.000000000000000
2  41 12 0 0.000000000000000 5.000000000000000
2  42 13 0 0.000000000000000 5.000000000000000
0

0101000
+74 4 -74 6 *
Ed
 0.000000100000000 1 1 0
1  15 0 0.000000000000000 557.000000000000000
2  43 12 7 0.000000000000000 557.000000000000000
2  44 12 8 0.000000000000000 557.000000000000000
2  45 4 9 0.000000000000000 557.000000000000000
2  46 14 11 0.000000000000000 557.000000000000000
0

0101000
+79 0 -74 0 *
Wi

0101100
+78 0 -73 0 -72 4 +72 6 *
Fa
0  0.000000100000000 12 0

0111000
+71 0 *
Ve
0.000000100000000
0.000000000000000 20.000000000000000 0.000000000000000
0 0

0101101
*
Ed
 0.000000100000000 1 1 0
1  16 0 0.000000000000000 5.000000000000000
2  47 13 0 0.000000000000000 5.000000000000000
2  48 15 0 0.000000000000000 5.000000000000000
2  49 16 12 0.000000000000000 5.000000000000000
0

0101000
+69 4 -69 6 *
Ed
 0.000000100000000 1 1 0
1  17 0 0.000000000000000 20.000000000000000
2  50 13 7 0.000000000000000 20.000000000000000
2  51 13 8 0.000000000000000 20.000000000000000
2  52 4 9 0.000000000000000 20.000000000000000
2  53 16 11 0.000000000000000 20.000000000000000
0

0101000
+74 0 -69 0 *
Wi

0101100
+73 0 -68 0 -67 4 +67 6 *
Fa
0  0.000000100000000 13 0

0111000
+66 0 *
Ve
0.000000100000000
20.000000000000000 20.000000000000000 0.000000000000000
0 0

0101101
*
Ed
 0.000000100000000 1 1 0
1  18 0 0.000000000000000 5.000000000000000
2  54 15 0 0.000000000000000 5.000000000000000
2  55 17 0 0.000000000000000 5.000000000000000
0

0101000
+64 4 -64 6 *
Ed
 0.000000100000000 1 1 0
1  19 0 0.000000000000000 20.000000000000000
2  56 4 9 0.000000000000000 20.000000000000000
2  57 15 7 0.000000000000000 20.000000000000000
2  58 15 8 0.000000000000000 20.000000000000000
2  59 9 15 0.000000000000000 20.000000000000000
0

0101000
+69 0 -64 0 *
Wi

0101100
+68 0 -63 0 -62 4 +62 6 *
Fa
0  0.000000100000000 15 0

0111000
+61 0 *
Ve
0.000000100000000
20.000000000000000 750.000000000000000 0.000000000000000
0 0

0101101
*
Ed
 0.000000100000000 1 1 0
1  20 0 0.000000000000000 5.000000000000000
2  60 18 0 0.000000000000000 5.000000000000000
2  61 17 0 0.000000000000000 5.000000000000000
0

0101000
+59 4 -59 6 *
Ed
 0.000000100000000 1 1 0
1  21 0 0.000000000000000 730.000000000000000
2  62 4 9 0.000000000000000 730.000000000000000
2  63 17 7 0.000000000000000 730.000000000000000
2  64 17 8 0.000000000000000 730.000000000000000
2  65 9 15 0.000000000000000 730.000000000000000
0

0101000
+64 0 -59 0 *
Wi

0101100
+63 0 -58 0 -57 4 +57 6 *
Fa
0  0.000000100000000 17 0

0111000
+56 0 *
Ve
0.000000100000000
0.000000000000000 750.000000000000000 0.000000000000000
0 0

0101101
*
Ed
 0.000000100000000 1 1 0
1  22 0 0.000000000000000 5.000000000000000
2  66 2 0 0.000000000000000 5.000000000000000
2  67 18 0 0.000000000000000 5.000000000000000
2  68 16 12 0.000000000000000 5.000000000000000
0

0101000
+54 4 -54 6 *
Ed
 0.000000100000000 1 1 0
1  23 0 0.000000000000000 20.000000000000000
2  69 4 9 0.000000000000000 20.000000000000000
2  70 18 7 0.000000000000000 20.000000000000000
2  71 18 8 0.000000000000000 20.000000000000000
2  72 9 15 0.000000000000000 20.000000000000000
0

0101000
+59 0 -54 0 *
Wi

0101100
+58 0 -53 0 -52 4 +52 6 *
Fa
0  0.000000100000000 18 0

0111000
+51 0 *
Ed
 0.000000100000000 1 1 0
1  24 0 0.000000000000000 20.000000000000000
2  73 2 7 0.000000000000000 20.000000000000000
2  74 2 8 0.000000000000000 20.000000000000000
2  75 4 9 0.000000000000000 20.000000000000000
2  76 16 11 0.000000000000000 20.000000000000000
0

0101000
+54 0 -106 0 *
Wi

0101100
+53 0 -105 0 -49 4 +49 6 *
Fa
0  0.000000100000000 2 0

0111000
+48 0 *
Ve
0.000000100000000
50.000000000000000 20.000000000000000 0.000000000000000
0 0

0101101
*
Ed
 0.000000100000000 1 1 0
1  25 0 0.000000000000000 5.000000000000000
2  77 19 0 0.000000000000000 5.000000000000000
2  78 20 0 0.000000000000000 5.000000000000000
0

0101000
+46 4 -46 6 *
Ve
0.000000100000000
50.000000000000000 750.000000000000000 0.000000000000000
0 0

0101101
*
Ed
 0.000000100000000 1 1 0
1  26 0 0.000000000000000 5.000000000000000
2  79 19 0 0.000000000000000 5.000000000000000
2  80 21 0 0.000000000000000 5.000000000000000
0

0101000
+44 4 -44 6 *
Ed
 0.000000100000000 1 1 0
1  27 0 0.000000000000000 730.000000000000000
2  81 4 9 0.000000000000000 730.000000000000000
2  82 19 7 0.000000000000000 730.000000000000000
2  83 19 8 0.000000000000000 730.000000000000000
2  84 9 15 0.000000000000000 730.000000000000000
0

0101000
+46 0 -44 0 *
Wi

0101100
+45 0 -43 0 -42 4 +42 6 *
Fa
0  0.000000100000000 19 0

0111000
+41 0 *
Ve
0.000000100000000
270.000000000000000 20.000000000000000 0.000000000000000
0 0

0101101
*
Ed
 0.000000100000000 1 1 0
1  28 0 0.000000000000000 5.000000000000000
2  85 20 0 0.000000000000000 5.000000000000000
2  86 22 0 0.000000000000000 5.000000000000000
0

0101000
+39 4 -39 6 *
Ed
 0.000000100000000 1 1 0
1  29 0 0.000000000000000 220.000000000000000
2  87 4 9 0.000000000000000 220.000000000000000
2  88 20 7 0.000000000000000 220.000000000000000
2  89 20 8 0.000000000000000 220.000000000000000
2  90 9 15 0.000000000000000 220.000000000000000
0

0101000
+39 0 -46 0 *
Wi

0101100
+38 0 -45 0 -37 4 +37 6 *
Fa
0  0.000000100000000 20 0

0111000
+36 0 *
Ve
0.000000100000000
270.000000000000000 750.000000000000000 0.000000000000000
0 0

0101101
*
Ed
 0.000000100000000 1 1 0
1  30 0 0.000000000000000 5.000000000000000
2  91 22 0 0.000000000000000 5.000000000000000
2  92 21 0 0.000000000000000 5.000000000000000
0

0101000
+34 4 -34 6 *
Ed
 0.000000100000000 1 1 0
1  31 0 0.000000000000000 730.000000000000000
2  93 4 9 0.000000000000000 730.000000000000000
2  94 22 7 0.000000000000000 730.000000000000000
2  95 22 8 0.000000000000000 730.000000000000000
2  96 9 15 0.000000000000000 730.000000000000000
0

0101000
+34 0 -39 0 *
Wi

0101100
+33 0 -38 0 -32 4 +32 6 *
Fa
0  0.000000100000000 22 0

0111000
+31 0 *
Ed
 0.000000100000000 1 1 0
1  32 0 0.000000000000000 220.000000000000000
2  97 4 9 0.000000000000000 220.000000000000000
2  98 21 7 0.000000000000000 220.000000000000000
2  99 21 8 0.000000000000000 220.000000000000000
2  100 9 15 0.000000000000000 220.000000000000000
0

0101000
+44 0 -34 0 *
Wi

0101100
+43 0 -33 0 -29 4 +29 6 *
Fa
0  0.000000100000000 21 0

0111000
+28 0 *
Ve
0.000000100000000
300.000000000000000 20.000000000000000 0.000000000000000
0 0

0101101
*
Ed
 0.000000100000000 1 1 0
1  33 0 0.000000000000000 5.000000000000000
2  101 23 0 0.000000000000000 5.000000000000000
2  102 24 0 0.000000000000000 5.000000000000000
0

0101000
+26 4 -26 6 *
Ve
0.000000100000000
300.000000000000000 750.000000000000000 0.000000000000000
0 0

0101101
*
Ed
 0.000000100000000 1 1 0
1  34 0 0.000000000000000 5.000000000000000
2  103 23 0 0.000000000000000 5.000000000000000
2  104 25 0 0.000000000000000 5.000000000000000
0

0101000
+24 4 -24 6 *
Ed
 0.000000100000000 1 1 0
1  35 0 0.000000000000000 730.000000000000000
2  105 4 9 0.000000000000000 730.000000000000000
2  106 23 7 0.000000000000000 730.000000000000000
2  107 23 8 0.000000000000000 730.000000000000000
2  108 9 15 0.000000000000000 730.000000000000000
0

0101000
+26 0 -24 0 *
Wi

0101100
+25 0 -23 0 -22 4 +22 6 *
Fa
0  0.000000100000000 23 0

0111000
+21 0 *
Ve
0.000000100000000
507.000000000000000 20.000000000000000 0.000000000000000
0 0

0101101
*
Ed
 0.000000100000000 1 1 0
1  36 0 0.000000000000000 5.000000000000000
2  109 24 0 0.000000000000000 5.000000000000000
2  110 26 0 0.000000000000000 5.000000000000000
0

0101000
+19 4 -19 6 *
Ed
 0.000000100000000 1 1 0
1  37 0 0.000000000000000 207.000000000000000
2  111 4 9 0.000000000000000 207.000000000000000
2  112 24 7 0.000000000000000 207.000000000000000
2  113 24 8 0.000000000000000 207.000000000000000
2  114 9 15 0.000000000000000 207.000000000000000
0

0101000
+19 0 -26 0 *
Wi

0101100
+18 0 -25 0 -17 4 +17 6 *
Fa
0  0.000000100000000 24 0

0111000
+16 0 *
Ve
0.000000100000000
507.000000000000000 750.000000000000000 0.000000000000000
0 0

0101101
*
Ed
 0.000000100000000 1 1 0
1  38 0 0.000000000000000 5.000000000000000
2  115 26 0 0.000000000000000 5.000000000000000
2  116 25 0 0.000000000000000 5.000000000000000
0

0101000
+14 4 -14 6 *
Ed
 0.000000100000000 1 1 0
1  39 0 0.000000000000000 730.000000000000000
2  117 4 9 0.000000000000000 730.000000000000000
2  118 26 7 0.000000000000000 730.000000000000000
2  119 26 8 0.000000000000000 730.000000000000000
2  120 9 15 0.000000000000000 730.000000000000000
0

0101000
+14 0 -19 0 *
Wi

0101100
+13 0 -18 0 -12 4 +12 6 *
Fa
0  0.000000100000000 26 0

0111000
+11 0 *
Ed
 0.000000100000000 1 1 0
1  40 0 0.000000000000000 207.000000000000000
2  121 4 9 0.000000000000000 207.000000000000000
2  122 25 7 0.000000000000000 207.000000000000000
2  123 25 8 0.000000000000000 207.000000000000000
2  124 9 15 0.000000000000000 207.000000000000000
0

0101000
+24 0 -14 0 *
Wi

0101100
+23 0 -13 0 -9 4 +9 6 *
Fa
0  0.000000100000000 25 0

0111000
+8 0 *
Wi

0101100
+102 17 +97 17 +92 17 +87 17 +82 17 +77 17 +72 17 +67 17 +62 17 +57 17 
+52 17 +49 17 *
Wi

0101100
-42 17 -37 17 -32 17 -29 17 *
Wi

0101100
-22 17 -17 17 -12 17 -9 17 *
Fa
0  0.000000100000000 4 0

0111000
+6 0 +5 0 +4 0 *
Sh

0101100
+100 0 +95 0 +90 0 +85 0 +80 0 +75 0 +70 0 +65 0 +60 0 +55 0 
+50 0 +47 0 -40 0 -35 0 -30 0 -27 0 -20 0 -15 0 -10 0 -7 0 
+3 16 -3 18 *
So

1100000
-2 0 *

+1 0 