
CASCADE Topology V1, (c) Matra-Datavision
Locations 14
1
1.000000000000000 0.000000000000000 0.000000000000000 0.000000000000000 
0.000000000000000 1.000000000000000 0.000000000000000 0.000000000000000 
0.000000000000000 0.000000000000000 1.000000000000000 0.000000000000000 
1
1.000000000000000 0.000000000000000 0.000000000000000 0.000000000000000 
0.000000000000000 1.000000000000000 0.000000000000000 0.000000000000000 
0.000000000000000 0.000000000000000 1.000000000000000 0.000000000000000 
1
1.000000000000000 0.000000000000000 0.000000000000000 0.000000000000000 
0.000000000000000 1.000000000000000 0.000000000000000 0.000000000000000 
0.000000000000000 0.000000000000000 1.000000000000000 0.000000000000000 
1
1.000000000000000 0.000000000000000 0.000000000000000 0.000000000000000 
0.000000000000000 1.000000000000000 0.000000000000000 0.000000000000000 
0.000000000000000 0.000000000000000 1.000000000000000 0.000000000000000 
2  2 1 3 1 4 -1 0
1
1.000000000000000 0.000000000000000 0.000000000000000 0.000000000000000 
0.000000000000000 1.000000000000000 0.000000000000000 0.000000000000000 
0.000000000000000 0.000000000000000 1.000000000000000 28.000000000000000 
2  2 1 3 1 4 -1 6 1 0
2  4 1 3 -1 2 -1 0
2  6 -1 4 1 3 -1 2 -1 0
2  3 -1 2 -1 0
2  1 -1 6 -1 4 1 3 -1 2 -1 0
2  4 -1 0
2  2 1 3 1 0
2  4 -1 6 1 0
Curve2ds 24
1 0.00000000000000000 0.00000000000000000 0.00000000000000000 -1.00000000000000000 
1 770.00000000000000000 0.00000000000000000 0.00000000000000000 -1.00000000000000000 
1 557.00000000000000000 0.00000000000000000 0.00000000000000000 -1.00000000000000000 
1 0.00000000000000000 0.00000000000000000 0.00000000000000000 -1.00000000000000000 
1 0.00000000000000000 0.00000000000000000 1.00000000000000000 0.00000000000000000 
1 0.00000000000000000 -28.00000000000000000 1.00000000000000000 0.00000000000000000 
1 -278.50000000000000000 -385.00000000000000000 1.00000000000000000 0.00000000000000000 
1 260.52749483043629652 -388.57636859697117870 -1.00000000000000000 0.00000000000000000 
1 258.38168552767632491 -385.60934381337420973 -1.00000000000000000 -0.00000000000000000 
1 770.00000000000000000 0.00000000000000000 0.00000000000000000 -1.00000000000000000 
1 0.00000000000000000 -0.00000000000000000 0.00000000000000000 -1.00000000000000000 
1 0.00000000000000000 0.00000000000000000 1.00000000000000000 0.00000000000000000 
1 0.00000000000000000 -28.00000000000000000 1.00000000000000000 0.00000000000000000 
1 278.50000000000000000 -385.00000000000000000 0.00000000000000000 1.00000000000000000 
1 557.00000000000000000 0.00000000000000000 0.00000000000000000 -1.00000000000000000 
1 0.00000000000000000 0.00000000000000000 0.00000000000000000 -1.00000000000000000 
1 0.00000000000000000 -0.00000000000000000 1.00000000000000000 0.00000000000000000 
1 0.00000000000000000 -28.00000000000000000 1.00000000000000000 0.00000000000000000 
1 278.50000000000000000 385.00000000000000000 -1.00000000000000000 0.00000000000000000 
1 -296.47250516956370348 381.42363140302882130 1.00000000000000000 0.00000000000000000 
1 -298.61831447232367509 384.39065618662579027 1.00000000000000000 0.00000000000000000 
1 0.00000000000000000 0.00000000000000000 1.00000000000000000 0.00000000000000000 
1 0.00000000000000000 -28.00000000000000000 1.00000000000000000 0.00000000000000000 
1 -278.50000000000000000 385.00000000000000000 0.00000000000000000 -1.00000000000000000 
Curves 8
1 0.00000000000000000 0.00000000000000000 0.00000000000000000 0.00000000000000000 0.00000000000000000 1.00000000000000000 
1 557.00000000000000000 0.00000000000000000 0.00000000000000000 0.00000000000000000 0.00000000000000000 1.00000000000000000 
1 0.00000000000000000 0.00000000000000000 0.00000000000000000 1.00000000000000000 0.00000000000000000 0.00000000000000000 
1 557.00000000000000000 770.00000000000000000 0.00000000000000000 0.00000000000000000 0.00000000000000000 1.00000000000000000 
1 557.00000000000000000 0.00000000000000000 0.00000000000000000 0.00000000000000000 1.00000000000000000 0.00000000000000000 
1 0.00000000000000000 770.00000000000000000 0.00000000000000000 0.00000000000000000 0.00000000000000000 1.00000000000000000 
1 557.00000000000000000 770.00000000000000000 0.00000000000000000 -1.00000000000000000 0.00000000000000000 0.00000000000000000 
1 0.00000000000000000 770.00000000000000000 0.00000000000000000 0.00000000000000000 -1.00000000000000000 0.00000000000000000 
Polygon3D 0
PolygonOnTriangulations 0
Surfaces 7
1 0.00000000000000000 0.00000000000000000 0.00000000000000000 0.00000000000000000 1.00000000000000000 0.00000000000000000 1.00000000000000000 0.00000000000000000 0.00000000000000000 0.00000000000000000 0.00000000000000000 -1.00000000000000000 
1 0.00000000000000000 770.00000000000000000 0.00000000000000000 1.00000000000000000 0.00000000000000000 -0.00000000000000000 0.00000000000000000 -1.00000000000000000 0.00000000000000000 0.00000000000000000 -0.00000000000000000 -1.00000000000000000 
1 557.00000000000000000 0.00000000000000000 0.00000000000000000 -1.00000000000000000 0.00000000000000000 0.00000000000000000 0.00000000000000000 1.00000000000000000 0.00000000000000000 0.00000000000000000 0.00000000000000000 -1.00000000000000000 
1 278.50000000000000000 385.00000000000000000 0.00000000000000000 0.00000000000000000 0.00000000000000000 1.00000000000000000 1.00000000000000000 0.00000000000000000 -0.00000000000000000 -0.00000000000000000 1.00000000000000000 0.00000000000000000 
1 260.52749483043629652 388.57636859697117870 28.00000000000000000 -0.00000000000000000 -0.00000000000000000 -1.00000000000000000 -1.00000000000000000 0.00000000000000000 0.00000000000000000 0.00000000000000000 1.00000000000000000 -0.00000000000000000 
1 258.38168552767632491 385.60934381337420973 27.99999999999999289 -0.00000000000000000 -0.00000000000000000 -1.00000000000000000 -1.00000000000000000 0.00000000000000000 0.00000000000000000 0.00000000000000000 1.00000000000000000 -0.00000000000000000 
1 557.00000000000000000 770.00000000000000000 0.00000000000000000 0.00000000000000000 -1.00000000000000000 0.00000000000000000 -1.00000000000000000 0.00000000000000000 0.00000000000000000 -0.00000000000000000 -0.00000000000000000 -1.00000000000000000 
Triangulations 0

TShapes 24
Ve
0.000000100000007
0.000000000000000 0.000000000000000 0.000000000000000
0 0

0101101
*
Ed
 0.000000100000000 1 1 0
1  1 0 0.000000000000000 28.000000000000000
2  1 1 0 0.000000000000000 28.000000000000000
2  2 2 0 0.000000000000000 28.000000000000000
0

0101000
+24 5 -24 7 *
Ve
0.000000100000007
557.000000000000000 0.000000000000000 0.000000000000000
0 0

0101101
*
Ed
 0.000000100000000 1 1 0
1  2 0 0.000000000000000 28.000000000000000
2  3 1 0 0.000000000000000 28.000000000000000
2  4 3 0 0.000000000000000 28.000000000000000
0

0101000
+22 5 -22 7 *
Ed
 0.000000100000007 1 1 0
1  3 0 0.000000000000000 557.000000000000000
2  5 1 8 0.000000000000000 557.000000000000000
2  6 1 9 0.000000000000000 557.000000000000000
2  7 4 10 0.000000000000000 557.000000000000000
2  8 5 11 0.000000000000000 557.000000000000000
2  9 6 11 0.000000000000000 557.000000000000000
0

0101000
+24 0 -22 0 *
Wi

0101100
+23 0 -21 0 -20 5 +20 7 *
Fa
0  0.000000100000000 1 0

0101000
+19 0 *
Ve
0.000000100000007
557.000000000000000 770.000000000000000 0.000000000000000
0 0

0101101
*
Ed
 0.000000100000000 1 1 0
1  4 0 0.000000000000000 28.000000000000000
2  10 3 0 0.000000000000000 28.000000000000000
2  11 7 0 0.000000000000000 28.000000000000000
0

0101000
+17 5 -17 7 *
Ed
 0.000000100000000 1 1 0
1  5 0 0.000000000000000 770.000000000000000
2  12 3 8 0.000000000000000 770.000000000000000
2  13 3 9 0.000000000000000 770.000000000000000
2  14 4 10 0.000000000000000 770.000000000000000
0

0101000
+22 0 -17 0 *
Wi

0101100
+21 0 -16 0 -15 5 +15 7 *
Fa
0  0.000000100000000 3 0

0101000
+14 0 *
Ve
0.000000100000007
0.000000000000000 770.000000000000000 0.000000000000000
0 0

0101101
*
Ed
 0.000000100000000 1 1 0
1  6 0 0.000000000000000 28.000000000000000
2  15 7 0 0.000000000000000 28.000000000000000
2  16 2 0 0.000000000000000 28.000000000000000
0

0101000
+12 5 -12 7 *
Ed
 0.000000100000007 1 1 0
1  7 0 0.000000000000000 557.000000000000000
2  17 7 8 0.000000000000000 557.000000000000000
2  18 7 9 0.000000000000000 557.000000000000000
2  19 4 10 0.000000000000000 557.000000000000000
2  20 5 11 0.000000000000000 557.000000000000000
2  21 6 11 0.000000000000000 557.000000000000000
0

0101000
+17 0 -12 0 *
Wi

0101100
+16 0 -11 0 -10 5 +10 7 *
Fa
0  0.000000100000000 7 0

0101000
+9 0 *
Ed
 0.000000100000000 1 1 0
1  8 0 0.000000000000000 770.000000000000000
2  22 2 8 0.000000000000000 770.000000000000000
2  23 2 9 0.000000000000000 770.000000000000000
2  24 4 10 0.000000000000000 770.000000000000000
0

0101000
+12 0 -24 0 *
Wi

0101100
+11 0 -23 0 -7 5 +7 7 *
Fa
0  0.000000100000000 2 0

0101000
+6 0 *
Wi

0101100
+20 0 +15 0 +10 0 +7 0 *
Fa
0  0.000000100000000 4 0

0101000
+4 13 *
Sh

0101100
+18 0 +13 0 +8 0 +5 0 +3 12 -3 14 *
So

1100000
-2 0 *

+1 1 