
CASCADE Topology V1, (c) Matra-Datavision
Locations 8
1
1.000000000000000 0.000000000000000 0.000000000000000 0.000000000000000 
0.000000000000000 1.000000000000000 0.000000000000000 0.000000000000000 
0.000000000000000 0.000000000000000 1.000000000000000 0.000000000000000 
1
1.000000000000000 0.000000000000000 0.000000000000000 0.000000000000000 
0.000000000000000 -0.000000000000000 -1.000000000000000 0.000000000000000 
0.000000000000000 1.000000000000000 -0.000000000000000 0.000000000000000 
2  2 -1 0
1
1.000000000000000 0.000000000000000 0.000000000000000 0.000000000000000 
0.000000000000000 -0.000000000000000 -1.000000000000000 0.000000000000000 
0.000000000000000 1.000000000000000 -0.000000000000000 0.000000000000000 
1
1.000000000000000 0.000000000000000 0.000000000000000 0.000000000000000 
0.000000000000000 -0.000000000000000 -1.000000000000000 0.000000000000000 
0.000000000000000 1.000000000000000 -0.000000000000000 0.000000000000000 
2  4 1 5 -1 0
2  5 1 4 -1 0
2  2 -1 5 1 4 -1 0
Curve2ds 8
1 0.00000000000000000 0.00000000000000000 1.00000000000000000 0.00000000000000000 
1 0.00000000000000000 14.99000000000000021 1.00000000000000000 0.00000000000000000 
1 0.00000000000000000 18.00999999999999801 1.00000000000000000 0.00000000000000000 
1 6.28318530717958623 0.00000000000000000 0.00000000000000000 1.00000000000000000 
1 0.00000000000000000 0.00000000000000000 0.00000000000000000 1.00000000000000000 
1 0.00000000000000000 0.00000000000000000 1.00000000000000000 0.00000000000000000 
1 6.28318530717958623 0.00000000000000000 0.00000000000000000 1.00000000000000000 
1 0.00000000000000000 0.00000000000000000 0.00000000000000000 1.00000000000000000 
Curves 5
2 0.00000000000000000 0.00000000000000000 0.00000000000000000 0.00000000000000000 0.00000000000000022 -1.00000000000000000 1.00000000000000000 0.00000000000000000 0.00000000000000000 0.00000000000000000 -1.00000000000000000 -0.00000000000000022 3.00000000000000000
2 0.00000000000000000 -0.00000000000000333 14.99000000000000199 0.00000000000000000 0.00000000000000022 -1.00000000000000000 1.00000000000000000 0.00000000000000000 0.00000000000000000 0.00000000000000000 -1.00000000000000000 -0.00000000000000022 2.99999999999998046
1 3.00000000000000000 0.00000000000000000 0.00000000000000000 0.00000000000000000 -0.00000000000000022 1.00000000000000000 
2 0.00000000000000000 -0.00000000000000733 33.00000000000000000 0.00000000000000000 0.00000000000000022 -1.00000000000000000 1.00000000000000000 0.00000000000000000 0.00000000000000000 0.00000000000000000 -1.00000000000000000 -0.00000000000000022 2.99999999999996092
1 2.99999999999996092 -0.00000000000000733 33.00000000000000000 0.00000000000000000 0.00000000000000022 -1.00000000000000000 
Polygon3D 0
PolygonOnTriangulations 0
Surfaces 4
1 0.00000000000000000 0.00000000000000000 0.00000000000000000 -0.00000000000000000 0.00000000000000022 -1.00000000000000000 -1.00000000000000000 0.00000000000000000 0.00000000000000000 -0.00000000000000000 -1.00000000000000000 -0.00000000000000022 
2 0.00000000000000000 0.00000000000000000 0.00000000000000000 0.00000000000000000 -0.00000000000000022 1.00000000000000000 1.00000000000000000 0.00000000000000000 0.00000000000000000 0.00000000000000000 -1.00000000000000000 -0.00000000000000022 3.00000000000000000
2 0.00000000000000000 -0.00000000000000733 33.00000000000000000 -0.00000000000000000 0.00000000000000022 -1.00000000000000000 1.00000000000000000 0.00000000000000000 0.00000000000000000 0.00000000000000000 -1.00000000000000000 -0.00000000000000022 2.99999999999996092
1 0.00000000000000000 -0.00000000000000733 33.00000000000000000 -0.00000000000000000 0.00000000000000022 -1.00000000000000000 1.00000000000000000 0.00000000000000000 0.00000000000000000 0.00000000000000000 -1.00000000000000000 -0.00000000000000022 
Triangulations 0

TShapes 18
Ve
0.000000100000000
3.000000000000000 0.000000000000000 0.000000000000000
0 0

0101101
*
Ed
 0.000000100000000 1 1 0
1  1 0 0.000000000000000 6.283185307179586
2  1 2 0 0.000000000000000 6.283185307179586
0

0101000
+18 3 -18 3 *
Wi

0101100
-17 0 *
Fa
0  0.000000100000000 1 0

0111000
+16 0 *
Ve
0.000000100010020
2.999999999999980 -14.990000000000002 -0.000000000000007
0 0

0101101
*
Ed
 0.000000100010020 1 1 0
1  2 0 0.000000000000000 6.283185307179586
2  2 2 0 0.000000000000000 6.283185307179586
2  3 3 0 0.000000000000000 6.283185307179586
4 C2 2 0 3 0
0

0101000
+14 3 -14 3 *
Ed
 0.000000100000000 1 1 0
1  3 0 0.000000000000000 14.990000000000000
3  4 5CN 2 7 0.000000000000000 14.990000000000000
0

0101000
+18 8 -14 8 *
Wi

0101100
+17 0 -13 0 -12 6 +12 6 *
Fa
0  0.000000100000000 2 0

0111000
+11 0 *
Ve
0.000000100000000
2.999999999999961 -33.000000000000000 -0.000000000000015
0 0

0101101
*
Ed
 0.000000100000000 1 1 0
1  4 0 0.000000000000000 6.283185307179586
2  6 3 0 0.000000000000000 6.283185307179586
0

0101000
+9 3 -9 3 *
Ed
 0.000000100000000 1 1 0
1  5 0 0.000000000000000 18.009999999999998
3  7 8CN 3 7 0.000000000000000 18.009999999999998
0

0101000
-14 8 +9 8 *
Wi

0101100
-13 0 +8 0 -7 6 +7 6 *
Fa
0  0.000000100000000 3 0

0111000
+6 0 *
Wi

0101100
+8 0 *
Fa
0  0.000000100000000 4 0

0111000
+4 0 *
Sh

0101100
+15 0 +10 0 -5 0 +3 0 *
So

1100000
-2 0 *

+1 1 